<?xml version="1.0" encoding="utf-8" standalone="no"?>
<!DOCTYPE svg PUBLIC "-//W3C//DTD SVG 1.1//EN"
  "http://www.w3.org/Graphics/SVG/1.1/DTD/svg11.dtd">
<!-- Created with matplotlib (https://matplotlib.org/) -->
<svg height="328.435471pt" version="1.1" viewBox="0 0 395.721875 328.435471" width="395.721875pt" xmlns="http://www.w3.org/2000/svg" xmlns:xlink="http://www.w3.org/1999/xlink">
 <defs>
  <style type="text/css">
*{stroke-linecap:butt;stroke-linejoin:round;}
  </style>
 </defs>
 <g id="figure_1">
  <g id="patch_1">
   <path d="M 0 328.435471 
L 395.721875 328.435471 
L 395.721875 0 
L 0 0 
z
" style="fill:#ffffff;"/>
  </g>
  <g id="axes_1">
   <g id="patch_2">
    <path d="M 53.721875 272.10125 
L 388.521875 272.10125 
L 388.521875 54.66125 
L 53.721875 54.66125 
z
" style="fill:#ffffff;"/>
   </g>
   <g id="matplotlib.axis_1">
    <g id="xtick_1">
     <g id="line2d_1">
      <defs>
       <path d="M 0 0 
L 0 3.5 
" id="m7b4df4491d" style="stroke:#000000;stroke-width:0.8;"/>
      </defs>
      <g>
       <use style="stroke:#000000;stroke-width:0.8;" x="68.940057" xlink:href="#m7b4df4491d" y="272.10125"/>
      </g>
     </g>
     <g id="text_1">
      <!-- 00:00 -->
      <defs>
       <path d="M 4.25 38.1875 
Q 4.25 56.203125 12.640625 66.9375 
Q 20.171875 76.65625 30.859375 76.65625 
Q 41.546875 76.65625 49.078125 66.9375 
Q 57.46875 56.203125 57.46875 37.703125 
Q 57.46875 19.234375 49.078125 8.5 
Q 41.546875 -1.21875 30.90625 -1.21875 
Q 20.265625 -1.21875 12.640625 8.5 
Q 4.25 19.234375 4.25 38.1875 
z
M 15.4375 38.140625 
Q 15.4375 25.59375 19.78125 17.28125 
Q 24.125 9.125 30.859375 9.125 
Q 37.546875 9.125 41.9375 17.28125 
Q 46.34375 25.390625 46.34375 37.75 
Q 46.34375 50.09375 41.9375 58.25 
Q 37.546875 66.359375 30.859375 66.359375 
Q 24.21875 66.359375 19.828125 58.25 
Q 15.4375 50.203125 15.4375 38.140625 
z
" id="Futura-Medium-48"/>
       <path d="M 8.640625 5.46875 
Q 8.640625 8.203125 10.640625 10.203125 
Q 12.640625 12.203125 15.4375 12.203125 
Q 18.21875 12.203125 20.21875 10.203125 
Q 22.21875 8.203125 22.21875 5.421875 
Q 22.21875 2.59375 20.21875 0.59375 
Q 18.265625 -1.375 15.4375 -1.375 
Q 12.546875 -1.375 10.59375 0.578125 
Q 8.640625 2.546875 8.640625 5.46875 
z
M 8.640625 42.1875 
Q 8.640625 44.875 10.640625 46.875 
Q 12.640625 48.875 15.4375 48.875 
Q 18.21875 48.875 20.21875 46.875 
Q 22.21875 44.875 22.21875 42.09375 
Q 22.21875 39.265625 20.21875 37.25 
Q 18.265625 35.296875 15.4375 35.296875 
Q 12.59375 35.296875 10.59375 37.3125 
Q 8.640625 39.265625 8.640625 42.1875 
z
" id="Futura-Medium-58"/>
      </defs>
      <g transform="translate(47.471632 304.571457)rotate(-45)scale(0.1 -0.1)">
       <use xlink:href="#Futura-Medium-48"/>
       <use x="61.71875" xlink:href="#Futura-Medium-48"/>
       <use x="123.4375" xlink:href="#Futura-Medium-58"/>
       <use x="154.296875" xlink:href="#Futura-Medium-48"/>
       <use x="216.015625" xlink:href="#Futura-Medium-48"/>
      </g>
     </g>
    </g>
    <g id="xtick_2">
     <g id="line2d_2">
      <g>
       <use style="stroke:#000000;stroke-width:0.8;" x="82.173258" xlink:href="#m7b4df4491d" y="272.10125"/>
      </g>
     </g>
     <g id="text_2">
      <!-- 01:00 -->
      <defs>
       <path d="M 27.09375 64.75 
L 14.0625 64.75 
L 20.3125 75.390625 
L 38.484375 75.390625 
L 38.484375 0 
L 27.09375 0 
z
" id="Futura-Medium-49"/>
      </defs>
      <g transform="translate(60.712568 304.563723)rotate(-45)scale(0.1 -0.1)">
       <use xlink:href="#Futura-Medium-48"/>
       <use x="61.609375" xlink:href="#Futura-Medium-49"/>
       <use x="123.328125" xlink:href="#Futura-Medium-58"/>
       <use x="154.1875" xlink:href="#Futura-Medium-48"/>
       <use x="215.90625" xlink:href="#Futura-Medium-48"/>
      </g>
     </g>
    </g>
    <g id="xtick_3">
     <g id="line2d_3">
      <g>
       <use style="stroke:#000000;stroke-width:0.8;" x="95.40646" xlink:href="#m7b4df4491d" y="272.10125"/>
      </g>
     </g>
     <g id="text_3">
      <!-- 02:00 -->
      <defs>
       <path d="M 25.046875 10.6875 
L 53.125 10.6875 
L 53.125 0 
L 2.484375 0 
L 28.65625 31.6875 
Q 32.515625 36.421875 35.125 39.890625 
Q 37.75 43.359375 39.109375 45.703125 
Q 41.890625 50.296875 41.890625 53.953125 
Q 41.890625 59.234375 38.171875 62.796875 
Q 34.46875 66.359375 29 66.359375 
Q 17.578125 66.359375 15.921875 52.828125 
L 4.59375 52.828125 
Q 7.328125 76.65625 28.65625 76.65625 
Q 38.96875 76.65625 45.953125 70.125 
Q 52.984375 63.578125 52.984375 53.90625 
Q 52.984375 47.75 49.703125 41.84375 
Q 48.046875 38.765625 44.84375 34.546875 
Q 41.65625 30.328125 36.765625 24.5625 
z
" id="Futura-Medium-50"/>
      </defs>
      <g transform="translate(73.938035 304.571457)rotate(-45)scale(0.1 -0.1)">
       <use xlink:href="#Futura-Medium-48"/>
       <use x="61.71875" xlink:href="#Futura-Medium-50"/>
       <use x="123.4375" xlink:href="#Futura-Medium-58"/>
       <use x="154.296875" xlink:href="#Futura-Medium-48"/>
       <use x="216.015625" xlink:href="#Futura-Medium-48"/>
      </g>
     </g>
    </g>
    <g id="xtick_4">
     <g id="line2d_4">
      <g>
       <use style="stroke:#000000;stroke-width:0.8;" x="108.639662" xlink:href="#m7b4df4491d" y="272.10125"/>
      </g>
     </g>
     <g id="text_4">
      <!-- 03:00 -->
      <defs>
       <path d="M 25.875 35.015625 
L 25.875 44.734375 
Q 33.109375 44.734375 35.59375 46.34375 
Q 40.046875 49.171875 40.046875 55.421875 
Q 40.046875 60.25 36.8125 63.28125 
Q 33.640625 66.359375 28.5625 66.359375 
Q 23.828125 66.359375 21.234375 64.0625 
Q 18.75 61.71875 17.53125 56.15625 
L 6.203125 56.15625 
Q 7.953125 66.796875 13.421875 71.75 
Q 18.890625 76.703125 28.71875 76.703125 
Q 38.625 76.703125 44.875 70.84375 
Q 51.125 65.046875 51.125 55.859375 
Q 51.125 45.515625 42.921875 39.75 
Q 52.296875 34.234375 52.296875 21.828125 
Q 52.296875 11.671875 45.453125 5.21875 
Q 38.625 -1.21875 27.9375 -1.21875 
Q 14.3125 -1.21875 7.71875 8.796875 
Q 4.984375 12.984375 4.25 20.40625 
L 15.234375 20.40625 
Q 16.109375 14.9375 19.5 12.03125 
Q 22.90625 9.125 28.375 9.125 
Q 33.890625 9.125 37.5 12.796875 
Q 41.109375 16.546875 41.109375 22.3125 
Q 41.109375 29.9375 35.6875 33.15625 
Q 32.515625 35.015625 25.875 35.015625 
z
" id="Futura-Medium-51"/>
      </defs>
      <g transform="translate(87.171237 304.571457)rotate(-45)scale(0.1 -0.1)">
       <use xlink:href="#Futura-Medium-48"/>
       <use x="61.71875" xlink:href="#Futura-Medium-51"/>
       <use x="123.4375" xlink:href="#Futura-Medium-58"/>
       <use x="154.296875" xlink:href="#Futura-Medium-48"/>
       <use x="216.015625" xlink:href="#Futura-Medium-48"/>
      </g>
     </g>
    </g>
    <g id="xtick_5">
     <g id="line2d_5">
      <g>
       <use style="stroke:#000000;stroke-width:0.8;" x="121.872863" xlink:href="#m7b4df4491d" y="272.10125"/>
      </g>
     </g>
     <g id="text_5">
      <!-- 04:00 -->
      <defs>
       <path d="M 49.3125 21.046875 
L 57.328125 21.046875 
L 57.328125 10.6875 
L 49.3125 10.6875 
L 49.3125 0 
L 37.9375 0 
L 37.9375 10.6875 
L 0.921875 10.6875 
L 49.3125 81 
z
M 37.9375 21.046875 
L 37.9375 46.296875 
L 20.5625 21.046875 
z
" id="Futura-Medium-52"/>
      </defs>
      <g transform="translate(100.405543 304.570352)rotate(-45)scale(0.1 -0.1)">
       <use xlink:href="#Futura-Medium-48"/>
       <use x="61.703125" xlink:href="#Futura-Medium-52"/>
       <use x="123.421875" xlink:href="#Futura-Medium-58"/>
       <use x="154.28125" xlink:href="#Futura-Medium-48"/>
       <use x="216" xlink:href="#Futura-Medium-48"/>
      </g>
     </g>
    </g>
    <g id="xtick_6">
     <g id="line2d_6">
      <g>
       <use style="stroke:#000000;stroke-width:0.8;" x="135.106065" xlink:href="#m7b4df4491d" y="272.10125"/>
      </g>
     </g>
     <g id="text_6">
      <!-- 05:00 -->
      <defs>
       <path d="M 52.59375 64.75 
L 29.34375 64.75 
L 25.640625 52.25 
Q 26.46875 52.34375 27.21875 52.390625 
Q 27.984375 52.4375 28.609375 52.4375 
Q 39.59375 52.4375 46.625 45.015625 
Q 53.71875 37.640625 53.71875 26.125 
Q 53.71875 14.203125 45.703125 6.484375 
Q 37.703125 -1.21875 25.53125 -1.21875 
Q 10.546875 -1.21875 1.90625 12.84375 
L 10.5 20.125 
Q 14.0625 14.0625 17.671875 11.578125 
Q 21.296875 9.125 26.515625 9.125 
Q 33.34375 9.125 37.984375 13.921875 
Q 42.625 18.84375 42.625 25.875 
Q 42.625 33.109375 38.03125 37.703125 
Q 33.453125 42.4375 26.5625 42.4375 
Q 18.890625 42.4375 13.328125 35.75 
L 9.578125 35.75 
L 21.4375 75.390625 
L 52.59375 75.390625 
z
" id="Futura-Medium-53"/>
      </defs>
      <g transform="translate(113.63764 304.571457)rotate(-45)scale(0.1 -0.1)">
       <use xlink:href="#Futura-Medium-48"/>
       <use x="61.71875" xlink:href="#Futura-Medium-53"/>
       <use x="123.4375" xlink:href="#Futura-Medium-58"/>
       <use x="154.296875" xlink:href="#Futura-Medium-48"/>
       <use x="216.015625" xlink:href="#Futura-Medium-48"/>
      </g>
     </g>
    </g>
    <g id="xtick_7">
     <g id="line2d_7">
      <g>
       <use style="stroke:#000000;stroke-width:0.8;" x="148.339266" xlink:href="#m7b4df4491d" y="272.10125"/>
      </g>
     </g>
     <g id="text_7">
      <!-- 06:00 -->
      <defs>
       <path d="M 39.265625 78.03125 
L 47.609375 71.78125 
L 29.59375 47.265625 
Q 31.0625 47.46875 32.078125 47.5625 
Q 33.109375 47.65625 33.6875 47.65625 
Q 42.875 47.65625 49.5625 40.625 
Q 56.203125 33.6875 56.203125 23.921875 
Q 56.203125 13.578125 48.78125 6.15625 
Q 41.40625 -1.21875 31.0625 -1.21875 
Q 20.796875 -1.21875 13.09375 6.0625 
Q 5.515625 13.328125 5.515625 23.296875 
Q 5.515625 32.234375 12.890625 42.234375 
z
M 45.125 23.1875 
Q 45.125 29.203125 40.96875 33.34375 
Q 36.765625 37.546875 30.859375 37.546875 
Q 24.90625 37.546875 20.75 33.390625 
Q 16.609375 29.25 16.609375 23.34375 
Q 16.609375 17.4375 20.75 13.28125 
Q 24.90625 9.125 30.90625 9.125 
Q 36.765625 9.125 40.921875 13.28125 
Q 45.125 17.484375 45.125 23.1875 
z
" id="Futura-Medium-54"/>
      </defs>
      <g transform="translate(126.870842 304.571457)rotate(-45)scale(0.1 -0.1)">
       <use xlink:href="#Futura-Medium-48"/>
       <use x="61.71875" xlink:href="#Futura-Medium-54"/>
       <use x="123.4375" xlink:href="#Futura-Medium-58"/>
       <use x="154.296875" xlink:href="#Futura-Medium-48"/>
       <use x="216.015625" xlink:href="#Futura-Medium-48"/>
      </g>
     </g>
    </g>
    <g id="xtick_8">
     <g id="line2d_8">
      <g>
       <use style="stroke:#000000;stroke-width:0.8;" x="161.572468" xlink:href="#m7b4df4491d" y="272.10125"/>
      </g>
     </g>
     <g id="text_8">
      <!-- 07:00 -->
      <defs>
       <path d="M 42.390625 64.75 
L 5.171875 64.75 
L 5.171875 75.390625 
L 61.375 75.390625 
L 13.8125 -2.59375 
L 4.78125 3.125 
z
" id="Futura-Medium-55"/>
      </defs>
      <g transform="translate(140.116196 304.559304)rotate(-45)scale(0.1 -0.1)">
       <use xlink:href="#Futura-Medium-48"/>
       <use x="61.671875" xlink:href="#Futura-Medium-55"/>
       <use x="123.265625" xlink:href="#Futura-Medium-58"/>
       <use x="154.125" xlink:href="#Futura-Medium-48"/>
       <use x="215.84375" xlink:href="#Futura-Medium-48"/>
      </g>
     </g>
    </g>
    <g id="xtick_9">
     <g id="line2d_9">
      <g>
       <use style="stroke:#000000;stroke-width:0.8;" x="174.805669" xlink:href="#m7b4df4491d" y="272.10125"/>
      </g>
     </g>
     <g id="text_9">
      <!-- 08:00 -->
      <defs>
       <path d="M 17.390625 39.203125 
Q 9.078125 45.0625 9.078125 55.171875 
Q 9.078125 64.359375 15.375 70.515625 
Q 21.734375 76.65625 31.15625 76.65625 
Q 40.53125 76.65625 46.78125 70.515625 
Q 53.03125 64.40625 53.03125 55.125 
Q 53.03125 45.40625 44.78125 39.265625 
Q 49.3125 36.8125 51.90625 32.125 
Q 54.546875 27.4375 54.546875 21.578125 
Q 54.546875 11.578125 48 5.171875 
Q 41.453125 -1.21875 31.25 -1.21875 
Q 20.796875 -1.21875 14.015625 5.21875 
Q 7.171875 11.671875 7.171875 21.4375 
Q 7.171875 34.125 17.390625 39.203125 
z
M 19.78125 55.21875 
Q 19.78125 50.390625 23.046875 47.125 
Q 26.375 43.796875 31.0625 43.796875 
Q 35.6875 43.796875 39 47.109375 
Q 42.328125 50.4375 42.328125 55.078125 
Q 42.328125 59.71875 39 63.03125 
Q 35.6875 66.359375 31.0625 66.359375 
Q 26.421875 66.359375 23.09375 63.03125 
Q 19.78125 59.71875 19.78125 55.21875 
z
M 18.359375 21.828125 
Q 18.359375 16.609375 21.96875 12.84375 
Q 25.640625 9.125 30.859375 9.125 
Q 36.03125 9.125 39.703125 12.796875 
Q 43.359375 16.5 43.359375 21.6875 
Q 43.359375 26.90625 39.6875 30.5625 
Q 36.03125 34.234375 30.859375 34.234375 
Q 25.734375 34.234375 22.015625 30.5625 
Q 18.359375 26.90625 18.359375 21.828125 
z
" id="Futura-Medium-56"/>
      </defs>
      <g transform="translate(153.337245 304.571457)rotate(-45)scale(0.1 -0.1)">
       <use xlink:href="#Futura-Medium-48"/>
       <use x="61.71875" xlink:href="#Futura-Medium-56"/>
       <use x="123.4375" xlink:href="#Futura-Medium-58"/>
       <use x="154.296875" xlink:href="#Futura-Medium-48"/>
       <use x="216.015625" xlink:href="#Futura-Medium-48"/>
      </g>
     </g>
    </g>
    <g id="xtick_10">
     <g id="line2d_10">
      <g>
       <use style="stroke:#000000;stroke-width:0.8;" x="188.038871" xlink:href="#m7b4df4491d" y="272.10125"/>
      </g>
     </g>
     <g id="text_10">
      <!-- 09:00 -->
      <defs>
       <path d="M 22.46875 -2.59375 
L 14.109375 3.609375 
L 32.125 28.171875 
Q 30.671875 27.984375 29.640625 27.875 
Q 28.609375 27.78125 27.984375 27.78125 
Q 18.84375 27.78125 12.15625 34.765625 
Q 5.515625 41.703125 5.515625 51.46875 
Q 5.515625 61.859375 12.890625 69.234375 
Q 20.3125 76.65625 30.671875 76.65625 
Q 40.96875 76.65625 48.578125 69.34375 
Q 56.203125 62.0625 56.203125 52.15625 
Q 56.203125 43.359375 48.78125 33.15625 
z
M 16.609375 52.296875 
Q 16.609375 46.1875 20.75 42.046875 
Q 24.953125 37.84375 30.859375 37.84375 
Q 36.765625 37.84375 40.921875 42 
Q 45.125 46.1875 45.125 52.09375 
Q 45.125 58.015625 40.921875 62.203125 
Q 36.765625 66.359375 30.8125 66.359375 
Q 24.953125 66.359375 20.796875 62.203125 
Q 16.609375 58.015625 16.609375 52.296875 
z
" id="Futura-Medium-57"/>
      </defs>
      <g transform="translate(166.570446 304.571457)rotate(-45)scale(0.1 -0.1)">
       <use xlink:href="#Futura-Medium-48"/>
       <use x="61.71875" xlink:href="#Futura-Medium-57"/>
       <use x="123.4375" xlink:href="#Futura-Medium-58"/>
       <use x="154.296875" xlink:href="#Futura-Medium-48"/>
       <use x="216.015625" xlink:href="#Futura-Medium-48"/>
      </g>
     </g>
    </g>
    <g id="xtick_11">
     <g id="line2d_11">
      <g>
       <use style="stroke:#000000;stroke-width:0.8;" x="201.272073" xlink:href="#m7b4df4491d" y="272.10125"/>
      </g>
     </g>
     <g id="text_11">
      <!-- 10:00 -->
      <g transform="translate(179.810277 304.564828)rotate(-45)scale(0.1 -0.1)">
       <use xlink:href="#Futura-Medium-49"/>
       <use x="61.625" xlink:href="#Futura-Medium-48"/>
       <use x="123.34375" xlink:href="#Futura-Medium-58"/>
       <use x="154.203125" xlink:href="#Futura-Medium-48"/>
       <use x="215.921875" xlink:href="#Futura-Medium-48"/>
      </g>
     </g>
    </g>
    <g id="xtick_12">
     <g id="line2d_12">
      <g>
       <use style="stroke:#000000;stroke-width:0.8;" x="214.505274" xlink:href="#m7b4df4491d" y="272.10125"/>
      </g>
     </g>
     <g id="text_12">
      <!-- 11:00 -->
      <g transform="translate(193.052317 304.555989)rotate(-45)scale(0.1 -0.1)">
       <use xlink:href="#Futura-Medium-49"/>
       <use x="61.5" xlink:href="#Futura-Medium-49"/>
       <use x="123.21875" xlink:href="#Futura-Medium-58"/>
       <use x="154.078125" xlink:href="#Futura-Medium-48"/>
       <use x="215.796875" xlink:href="#Futura-Medium-48"/>
      </g>
     </g>
    </g>
    <g id="xtick_13">
     <g id="line2d_13">
      <g>
       <use style="stroke:#000000;stroke-width:0.8;" x="227.738476" xlink:href="#m7b4df4491d" y="272.10125"/>
      </g>
     </g>
     <g id="text_13">
      <!-- 12:00 -->
      <g transform="translate(206.277785 304.563723)rotate(-45)scale(0.1 -0.1)">
       <use xlink:href="#Futura-Medium-49"/>
       <use x="61.609375" xlink:href="#Futura-Medium-50"/>
       <use x="123.328125" xlink:href="#Futura-Medium-58"/>
       <use x="154.1875" xlink:href="#Futura-Medium-48"/>
       <use x="215.90625" xlink:href="#Futura-Medium-48"/>
      </g>
     </g>
    </g>
    <g id="xtick_14">
     <g id="line2d_14">
      <g>
       <use style="stroke:#000000;stroke-width:0.8;" x="240.971677" xlink:href="#m7b4df4491d" y="272.10125"/>
      </g>
     </g>
     <g id="text_14">
      <!-- 13:00 -->
      <g transform="translate(219.510987 304.563723)rotate(-45)scale(0.1 -0.1)">
       <use xlink:href="#Futura-Medium-49"/>
       <use x="61.609375" xlink:href="#Futura-Medium-51"/>
       <use x="123.328125" xlink:href="#Futura-Medium-58"/>
       <use x="154.1875" xlink:href="#Futura-Medium-48"/>
       <use x="215.90625" xlink:href="#Futura-Medium-48"/>
      </g>
     </g>
    </g>
    <g id="xtick_15">
     <g id="line2d_15">
      <g>
       <use style="stroke:#000000;stroke-width:0.8;" x="254.204879" xlink:href="#m7b4df4491d" y="272.10125"/>
      </g>
     </g>
     <g id="text_15">
      <!-- 14:00 -->
      <g transform="translate(232.744188 304.563723)rotate(-45)scale(0.1 -0.1)">
       <use xlink:href="#Futura-Medium-49"/>
       <use x="61.609375" xlink:href="#Futura-Medium-52"/>
       <use x="123.328125" xlink:href="#Futura-Medium-58"/>
       <use x="154.1875" xlink:href="#Futura-Medium-48"/>
       <use x="215.90625" xlink:href="#Futura-Medium-48"/>
      </g>
     </g>
    </g>
    <g id="xtick_16">
     <g id="line2d_16">
      <g>
       <use style="stroke:#000000;stroke-width:0.8;" x="267.438081" xlink:href="#m7b4df4491d" y="272.10125"/>
      </g>
     </g>
     <g id="text_16">
      <!-- 15:00 -->
      <g transform="translate(245.97739 304.563723)rotate(-45)scale(0.1 -0.1)">
       <use xlink:href="#Futura-Medium-49"/>
       <use x="61.609375" xlink:href="#Futura-Medium-53"/>
       <use x="123.328125" xlink:href="#Futura-Medium-58"/>
       <use x="154.1875" xlink:href="#Futura-Medium-48"/>
       <use x="215.90625" xlink:href="#Futura-Medium-48"/>
      </g>
     </g>
    </g>
    <g id="xtick_17">
     <g id="line2d_17">
      <g>
       <use style="stroke:#000000;stroke-width:0.8;" x="280.671282" xlink:href="#m7b4df4491d" y="272.10125"/>
      </g>
     </g>
     <g id="text_17">
      <!-- 16:00 -->
      <g transform="translate(259.211696 304.562618)rotate(-45)scale(0.1 -0.1)">
       <use xlink:href="#Futura-Medium-49"/>
       <use x="61.59375" xlink:href="#Futura-Medium-54"/>
       <use x="123.3125" xlink:href="#Futura-Medium-58"/>
       <use x="154.171875" xlink:href="#Futura-Medium-48"/>
       <use x="215.890625" xlink:href="#Futura-Medium-48"/>
      </g>
     </g>
    </g>
    <g id="xtick_18">
     <g id="line2d_18">
      <g>
       <use style="stroke:#000000;stroke-width:0.8;" x="293.904484" xlink:href="#m7b4df4491d" y="272.10125"/>
      </g>
     </g>
     <g id="text_18">
      <!-- 17:00 -->
      <g transform="translate(272.454841 304.552675)rotate(-45)scale(0.1 -0.1)">
       <use xlink:href="#Futura-Medium-49"/>
       <use x="61.578125" xlink:href="#Futura-Medium-55"/>
       <use x="123.171875" xlink:href="#Futura-Medium-58"/>
       <use x="154.03125" xlink:href="#Futura-Medium-48"/>
       <use x="215.75" xlink:href="#Futura-Medium-48"/>
      </g>
     </g>
    </g>
    <g id="xtick_19">
     <g id="line2d_19">
      <g>
       <use style="stroke:#000000;stroke-width:0.8;" x="307.137685" xlink:href="#m7b4df4491d" y="272.10125"/>
      </g>
     </g>
     <g id="text_19">
      <!-- 18:00 -->
      <g transform="translate(285.676994 304.563723)rotate(-45)scale(0.1 -0.1)">
       <use xlink:href="#Futura-Medium-49"/>
       <use x="61.609375" xlink:href="#Futura-Medium-56"/>
       <use x="123.328125" xlink:href="#Futura-Medium-58"/>
       <use x="154.1875" xlink:href="#Futura-Medium-48"/>
       <use x="215.90625" xlink:href="#Futura-Medium-48"/>
      </g>
     </g>
    </g>
    <g id="xtick_20">
     <g id="line2d_20">
      <g>
       <use style="stroke:#000000;stroke-width:0.8;" x="320.370887" xlink:href="#m7b4df4491d" y="272.10125"/>
      </g>
     </g>
     <g id="text_20">
      <!-- 19:00 -->
      <g transform="translate(298.911301 304.562618)rotate(-45)scale(0.1 -0.1)">
       <use xlink:href="#Futura-Medium-49"/>
       <use x="61.59375" xlink:href="#Futura-Medium-57"/>
       <use x="123.3125" xlink:href="#Futura-Medium-58"/>
       <use x="154.171875" xlink:href="#Futura-Medium-48"/>
       <use x="215.890625" xlink:href="#Futura-Medium-48"/>
      </g>
     </g>
    </g>
    <g id="xtick_21">
     <g id="line2d_21">
      <g>
       <use style="stroke:#000000;stroke-width:0.8;" x="333.604088" xlink:href="#m7b4df4491d" y="272.10125"/>
      </g>
     </g>
     <g id="text_21">
      <!-- 20:00 -->
      <g transform="translate(312.135664 304.571457)rotate(-45)scale(0.1 -0.1)">
       <use xlink:href="#Futura-Medium-50"/>
       <use x="61.71875" xlink:href="#Futura-Medium-48"/>
       <use x="123.4375" xlink:href="#Futura-Medium-58"/>
       <use x="154.296875" xlink:href="#Futura-Medium-48"/>
       <use x="216.015625" xlink:href="#Futura-Medium-48"/>
      </g>
     </g>
    </g>
    <g id="xtick_22">
     <g id="line2d_22">
      <g>
       <use style="stroke:#000000;stroke-width:0.8;" x="346.83729" xlink:href="#m7b4df4491d" y="272.10125"/>
      </g>
     </g>
     <g id="text_22">
      <!-- 21:00 -->
      <g transform="translate(325.377704 304.562618)rotate(-45)scale(0.1 -0.1)">
       <use xlink:href="#Futura-Medium-50"/>
       <use x="61.59375" xlink:href="#Futura-Medium-49"/>
       <use x="123.3125" xlink:href="#Futura-Medium-58"/>
       <use x="154.171875" xlink:href="#Futura-Medium-48"/>
       <use x="215.890625" xlink:href="#Futura-Medium-48"/>
      </g>
     </g>
    </g>
    <g id="xtick_23">
     <g id="line2d_23">
      <g>
       <use style="stroke:#000000;stroke-width:0.8;" x="360.070492" xlink:href="#m7b4df4491d" y="272.10125"/>
      </g>
     </g>
     <g id="text_23">
      <!-- 22:00 -->
      <g transform="translate(338.602067 304.571457)rotate(-45)scale(0.1 -0.1)">
       <use xlink:href="#Futura-Medium-50"/>
       <use x="61.71875" xlink:href="#Futura-Medium-50"/>
       <use x="123.4375" xlink:href="#Futura-Medium-58"/>
       <use x="154.296875" xlink:href="#Futura-Medium-48"/>
       <use x="216.015625" xlink:href="#Futura-Medium-48"/>
      </g>
     </g>
    </g>
    <g id="xtick_24">
     <g id="line2d_24">
      <g>
       <use style="stroke:#000000;stroke-width:0.8;" x="373.303693" xlink:href="#m7b4df4491d" y="272.10125"/>
      </g>
     </g>
     <g id="text_24">
      <!-- 23:00 -->
      <g transform="translate(351.835268 304.571457)rotate(-45)scale(0.1 -0.1)">
       <use xlink:href="#Futura-Medium-50"/>
       <use x="61.71875" xlink:href="#Futura-Medium-51"/>
       <use x="123.4375" xlink:href="#Futura-Medium-58"/>
       <use x="154.296875" xlink:href="#Futura-Medium-48"/>
       <use x="216.015625" xlink:href="#Futura-Medium-48"/>
      </g>
     </g>
    </g>
    <g id="text_25">
     <!-- Time -->
     <defs>
      <path d="M 29.828125 64.703125 
L 29.828125 0 
L 18.453125 0 
L 18.453125 64.703125 
L 1.125 64.703125 
L 1.125 75.390625 
L 47.125 75.390625 
L 47.125 64.703125 
z
" id="Futura-Medium-84"/>
      <path d="M 17.921875 47.5625 
L 17.921875 0 
L 6.9375 0 
L 6.9375 47.5625 
z
M 5.28125 67.328125 
Q 5.28125 70.21875 7.375 72.3125 
Q 9.46875 74.421875 12.40625 74.421875 
Q 15.375 74.421875 17.484375 72.3125 
Q 19.578125 70.265625 19.578125 67.28125 
Q 19.578125 64.3125 17.484375 62.203125 
Q 15.4375 60.109375 12.453125 60.109375 
Q 9.46875 60.109375 7.375 62.203125 
Q 5.28125 64.3125 5.28125 67.328125 
z
" id="Futura-Medium-105"/>
      <path d="M 6.9375 47.5625 
L 17.921875 47.5625 
L 17.921875 43.171875 
Q 21.09375 46.484375 23.34375 47.65625 
Q 25.734375 48.875 29.34375 48.875 
Q 37.40625 48.875 42.09375 41.84375 
Q 47.265625 48.875 56.109375 48.875 
Q 72.171875 48.875 72.171875 29.390625 
L 72.171875 0 
L 61.140625 0 
L 61.140625 26.421875 
Q 61.140625 33.25 59.46875 36.078125 
Q 57.765625 38.96875 53.859375 38.96875 
Q 49.3125 38.96875 47.234375 35.546875 
Q 45.171875 32.125 45.171875 24.5625 
L 45.171875 0 
L 34.125 0 
L 34.125 26.265625 
Q 34.125 38.96875 26.8125 38.96875 
Q 22.171875 38.96875 20.046875 35.5 
Q 17.921875 32.03125 17.921875 24.5625 
L 17.921875 0 
L 6.9375 0 
z
" id="Futura-Medium-109"/>
      <path d="M 50.25 21.1875 
L 16.15625 21.1875 
Q 16.609375 15.328125 19.96875 11.859375 
Q 23.34375 8.453125 28.609375 8.453125 
Q 32.71875 8.453125 35.40625 10.40625 
Q 38.03125 12.359375 41.40625 17.625 
L 50.6875 12.453125 
Q 48.53125 8.796875 46.140625 6.171875 
Q 43.75 3.5625 41.015625 1.875 
Q 38.28125 0.203125 35.109375 -0.578125 
Q 31.9375 -1.375 28.21875 -1.375 
Q 17.578125 -1.375 11.140625 5.46875 
Q 4.6875 12.359375 4.6875 23.734375 
Q 4.6875 35.015625 10.9375 42 
Q 17.234375 48.875 27.640625 48.875 
Q 38.140625 48.875 44.234375 42.1875 
Q 50.296875 35.546875 50.296875 23.78125 
z
M 38.96875 30.171875 
Q 36.671875 38.96875 27.875 38.96875 
Q 25.875 38.96875 24.109375 38.359375 
Q 22.359375 37.75 20.921875 36.59375 
Q 19.484375 35.453125 18.453125 33.84375 
Q 17.4375 32.234375 16.890625 30.171875 
z
" id="Futura-Medium-101"/>
     </defs>
     <g style="fill:#0039a6;" transform="translate(210.741406 318.647971)scale(0.1 -0.1)">
      <use xlink:href="#Futura-Medium-84"/>
      <use x="48.257812" xlink:href="#Futura-Medium-105"/>
      <use x="73.160156" xlink:href="#Futura-Medium-109"/>
      <use x="152.261719" xlink:href="#Futura-Medium-101"/>
     </g>
    </g>
   </g>
   <g id="matplotlib.axis_2">
    <g id="ytick_1">
     <g id="line2d_25">
      <defs>
       <path d="M 0 0 
L -3.5 0 
" id="m068aa9c3b9" style="stroke:#000000;stroke-width:0.8;"/>
      </defs>
      <g>
       <use style="stroke:#000000;stroke-width:0.8;" x="53.721875" xlink:href="#m068aa9c3b9" y="262.217614"/>
      </g>
     </g>
     <g id="text_26">
      <!-- 0 -->
      <g transform="translate(40.55 266.341051)scale(0.1 -0.1)">
       <use xlink:href="#Futura-Medium-48"/>
      </g>
     </g>
    </g>
    <g id="ytick_2">
     <g id="line2d_26">
      <g>
       <use style="stroke:#000000;stroke-width:0.8;" x="53.721875" xlink:href="#m068aa9c3b9" y="215.733727"/>
      </g>
     </g>
     <g id="text_27">
      <!-- 500 -->
      <g transform="translate(28.20625 219.857165)scale(0.1 -0.1)">
       <use xlink:href="#Futura-Medium-53"/>
       <use x="61.71875" xlink:href="#Futura-Medium-48"/>
       <use x="123.4375" xlink:href="#Futura-Medium-48"/>
      </g>
     </g>
    </g>
    <g id="ytick_3">
     <g id="line2d_27">
      <g>
       <use style="stroke:#000000;stroke-width:0.8;" x="53.721875" xlink:href="#m068aa9c3b9" y="169.249841"/>
      </g>
     </g>
     <g id="text_28">
      <!-- 1000 -->
      <g transform="translate(22.04375 173.373278)scale(0.1 -0.1)">
       <use xlink:href="#Futura-Medium-49"/>
       <use x="61.625" xlink:href="#Futura-Medium-48"/>
       <use x="123.34375" xlink:href="#Futura-Medium-48"/>
       <use x="185.0625" xlink:href="#Futura-Medium-48"/>
      </g>
     </g>
    </g>
    <g id="ytick_4">
     <g id="line2d_28">
      <g>
       <use style="stroke:#000000;stroke-width:0.8;" x="53.721875" xlink:href="#m068aa9c3b9" y="122.765954"/>
      </g>
     </g>
     <g id="text_29">
      <!-- 1500 -->
      <g transform="translate(22.045313 126.889392)scale(0.1 -0.1)">
       <use xlink:href="#Futura-Medium-49"/>
       <use x="61.609375" xlink:href="#Futura-Medium-53"/>
       <use x="123.328125" xlink:href="#Futura-Medium-48"/>
       <use x="185.046875" xlink:href="#Futura-Medium-48"/>
      </g>
     </g>
    </g>
    <g id="ytick_5">
     <g id="line2d_29">
      <g>
       <use style="stroke:#000000;stroke-width:0.8;" x="53.721875" xlink:href="#m068aa9c3b9" y="76.282068"/>
      </g>
     </g>
     <g id="text_30">
      <!-- 2000 -->
      <g transform="translate(22.034375 80.405505)scale(0.1 -0.1)">
       <use xlink:href="#Futura-Medium-50"/>
       <use x="61.71875" xlink:href="#Futura-Medium-48"/>
       <use x="123.4375" xlink:href="#Futura-Medium-48"/>
       <use x="185.15625" xlink:href="#Futura-Medium-48"/>
      </g>
     </g>
    </g>
    <g id="text_31">
     <!-- Commuters -->
     <defs>
      <path d="M 64.75 71.34375 
L 64.75 57.859375 
Q 54.890625 66.109375 44.34375 66.109375 
Q 32.71875 66.109375 24.75 57.765625 
Q 16.75 49.46875 16.75 37.453125 
Q 16.75 25.59375 24.75 17.4375 
Q 32.765625 9.28125 44.390625 9.28125 
Q 50.390625 9.28125 54.59375 11.234375 
Q 56.9375 12.203125 59.453125 13.859375 
Q 61.96875 15.53125 64.75 17.875 
L 64.75 4.15625 
Q 54.984375 -1.375 44.234375 -1.375 
Q 28.078125 -1.375 16.65625 9.90625 
Q 5.28125 21.296875 5.28125 37.359375 
Q 5.28125 51.765625 14.796875 63.03125 
Q 26.515625 76.859375 45.125 76.859375 
Q 55.28125 76.859375 64.75 71.34375 
z
" id="Futura-Medium-67"/>
      <path d="M 4.6875 24.125 
Q 4.6875 34.421875 12.0625 41.640625 
Q 19.4375 48.875 30.03125 48.875 
Q 40.671875 48.875 48.09375 41.609375 
Q 55.421875 34.328125 55.421875 23.734375 
Q 55.421875 13.03125 48.046875 5.8125 
Q 40.625 -1.375 29.828125 -1.375 
Q 19.140625 -1.375 11.921875 5.953125 
Q 4.6875 13.1875 4.6875 24.125 
z
M 15.921875 23.921875 
Q 15.921875 16.796875 19.734375 12.640625 
Q 23.640625 8.453125 30.03125 8.453125 
Q 36.46875 8.453125 40.328125 12.59375 
Q 44.1875 16.75 44.1875 23.6875 
Q 44.1875 30.609375 40.328125 34.765625 
Q 36.421875 38.96875 30.03125 38.96875 
Q 23.734375 38.96875 19.828125 34.765625 
Q 15.921875 30.5625 15.921875 23.921875 
z
" id="Futura-Medium-111"/>
      <path d="M 17.921875 47.5625 
L 17.921875 20.265625 
Q 17.921875 8.453125 27.25 8.453125 
Q 36.578125 8.453125 36.578125 20.265625 
L 36.578125 47.5625 
L 47.5625 47.5625 
L 47.5625 20.015625 
Q 47.5625 14.3125 46.140625 10.15625 
Q 44.78125 6.453125 41.40625 3.46875 
Q 35.84375 -1.375 27.25 -1.375 
Q 18.703125 -1.375 13.140625 3.46875 
Q 9.71875 6.453125 8.296875 10.15625 
Q 6.9375 13.484375 6.9375 20.015625 
L 6.9375 47.5625 
z
" id="Futura-Medium-117"/>
      <path d="M 18.265625 37.3125 
L 18.265625 0 
L 7.28125 0 
L 7.28125 37.3125 
L 2.59375 37.3125 
L 2.59375 47.5625 
L 7.28125 47.5625 
L 7.28125 64.984375 
L 18.265625 64.984375 
L 18.265625 47.5625 
L 26.8125 47.5625 
L 26.8125 37.3125 
z
" id="Futura-Medium-116"/>
      <path d="M 6.9375 47.5625 
L 17.921875 47.5625 
L 17.921875 43.3125 
Q 20.953125 46.484375 23.296875 47.65625 
Q 25.6875 48.875 28.953125 48.875 
Q 33.296875 48.875 38.03125 46.046875 
L 33.015625 35.984375 
Q 29.890625 38.234375 26.90625 38.234375 
Q 17.921875 38.234375 17.921875 24.65625 
L 17.921875 0 
L 6.9375 0 
z
" id="Futura-Medium-114"/>
      <path d="M 34.578125 39.453125 
L 25.484375 34.625 
Q 23.34375 39.015625 20.171875 39.015625 
Q 18.65625 39.015625 17.578125 38.015625 
Q 16.5 37.015625 16.5 35.453125 
Q 16.5 32.71875 22.859375 30.03125 
Q 31.59375 26.265625 34.609375 23.09375 
Q 37.640625 19.921875 37.640625 14.546875 
Q 37.640625 7.671875 32.5625 3.03125 
Q 27.640625 -1.375 20.65625 -1.375 
Q 8.6875 -1.375 3.71875 10.296875 
L 13.09375 14.65625 
Q 15.046875 11.234375 16.0625 10.296875 
Q 18.0625 8.453125 20.84375 8.453125 
Q 26.421875 8.453125 26.421875 13.53125 
Q 26.421875 16.453125 22.125 19 
Q 20.453125 19.828125 18.796875 20.609375 
Q 17.140625 21.390625 15.4375 22.21875 
Q 10.640625 24.5625 8.6875 26.90625 
Q 6.203125 29.890625 6.203125 34.578125 
Q 6.203125 40.765625 10.453125 44.828125 
Q 14.796875 48.875 21 48.875 
Q 30.125 48.875 34.578125 39.453125 
z
" id="Futura-Medium-115"/>
     </defs>
     <g style="fill:#0039a6;" transform="translate(15.446875 188.558594)rotate(-90)scale(0.1 -0.1)">
      <use xlink:href="#Futura-Medium-67"/>
      <use x="70.068359" xlink:href="#Futura-Medium-111"/>
      <use x="130.175781" xlink:href="#Futura-Medium-109"/>
      <use x="209.277344" xlink:href="#Futura-Medium-109"/>
      <use x="288.378906" xlink:href="#Futura-Medium-117"/>
      <use x="342.871094" xlink:href="#Futura-Medium-116"/>
      <use x="370.214844" xlink:href="#Futura-Medium-101"/>
      <use x="425.537109" xlink:href="#Futura-Medium-114"/>
      <use x="462.939453" xlink:href="#Futura-Medium-115"/>
     </g>
    </g>
   </g>
   <g id="line2d_30">
    <path clip-path="url(#p26abaa7ec4)" d="M 68.940057 236.64327 
L 82.173258 237.552086 
L 95.40646 242.328132 
L 108.639662 255.822641 
L 121.872863 258.183612 
L 135.106065 259.121501 
L 148.339266 256.875377 
L 155.00733 254.637641 
L 160.892428 233.924421 
L 161.318832 247.838598 
L 161.359266 102.158098 
L 161.572468 251.605397 
L 161.679069 248.997596 
L 162.006223 257.879118 
L 166.303337 217.267695 
L 166.74812 252.270062 
L 169.644721 226.31515 
L 170.104207 242.770446 
L 170.504879 220.238438 
L 171.607646 252.486987 
L 171.989938 246.840744 
L 172.537646 247.296286 
L 172.769227 249.666964 
L 173.096381 257.887972 
L 173.500729 246.784963 
L 173.555867 232.096055 
L 173.655116 252.084126 
L 173.761717 208.854112 
L 173.901401 216.901635 
L 174.110926 261.613323 
L 174.199148 261.154295 
L 174.507922 261.171726 
L 174.805669 238.017097 
L 174.809345 245.312974 
L 174.945353 243.717027 
L 175.110768 261.93871 
L 175.125472 247.187824 
L 175.474681 230.895926 
L 176.680373 258.610464 
L 176.831084 240.215241 
L 177.191322 256.06846 
L 177.49642 258.443122 
L 178.205867 67.881765 
L 178.23895 253.354686 
L 178.253654 193.543482 
L 178.536697 261.088719 
L 179.165274 248.373867 
L 179.246144 236.620487 
L 179.477725 64.544886 
L 179.797527 187.18681 
L 180.018081 81.150198 
L 180.42978 234.120687 
L 180.683417 181.765627 
L 180.734879 184.386156 
L 180.977488 261.189158 
L 181.043654 234.466733 
L 181.300966 234.652669 
L 181.337725 261.473871 
L 181.554602 253.850514 
L 181.598713 261.53585 
L 181.657527 260.094849 
L 182.260373 179.697094 
L 182.337567 231.770668 
L 182.55812 261.224021 
L 182.591203 251.52632 
L 182.605907 179.743578 
L 182.863219 229.60142 
L 183.15729 261.102 
L 183.532231 226.796892 
L 183.627804 250.364223 
L 183.778515 176.193371 
L 184.072586 260.933496 
L 184.385037 229.632409 
L 184.682784 261.613323 
L 185.315037 167.111582 
L 185.609108 260.852149 
L 185.917883 222.969719 
L 186.211954 261.287936 
L 186.300175 161.556757 
L 186.336934 250.370863 
L 186.921401 217.221212 
L 187.189741 174.560625 
L 187.421322 158.71543 
L 187.483812 261.439009 
L 188.038871 201.809435 
L 188.094009 260.885076 
L 188.292507 260.203312 
L 188.527764 257.112838 
L 188.61231 238.531491 
L 189.619503 250.288686 
L 190.07899 220.047432 
L 190.167211 252.13061 
L 191.156025 166.739711 
L 191.780926 249.626291 
L 192.060294 186.470333 
L 192.777092 253.788536 
L 193.607843 201.120884 
L 196.974958 153.910158 
L 197.31314 243.345156 
L 198.721005 215.640759 
L 198.897448 228.687237 
L 198.915828 199.362947 
L 199.081243 237.209283 
L 199.919345 115.810803 
L 200.125195 225.887874 
L 200.485432 220.753987 
L 201.272073 180.213475 
L 203.499662 198.369413 
L 203.793733 213.487006 
L 203.896658 115.009786 
L 204.087804 262.078162 
L 204.323061 261.783764 
L 204.642863 213.73492 
L 204.675946 261.675302 
L 209.292863 140.353767 
L 209.6531 261.752775 
L 212.207843 254.240979 
L 213.101084 223.191071 
L 213.347369 150.681641 
L 213.45397 188.153288 
L 213.490729 163.080161 
L 213.538515 202.346368 
L 213.612033 217.938391 
L 213.637764 207.118714 
L 213.854642 190.864848 
L 213.876697 261.915468 
L 214.152389 194.877957 
L 214.505274 199.726508 
L 214.975788 249.01619 
L 214.98314 245.686253 
L 215.516144 227.580478 
L 215.725669 261.194968 
L 216.159424 261.181687 
L 216.471875 261.009033 
L 217.791519 147.402414 
L 218.114998 222.94537 
L 218.401717 262.071521 
L 218.655353 260.792108 
L 218.692112 161.998354 
L 218.806065 250.257974 
L 218.975156 258.545387 
L 222.077606 213.316565 
L 222.099662 256.493455 
L 222.243021 81.336134 
L 222.481954 256.732515 
L 222.54812 120.32555 
L 222.812784 262.008436 
L 222.845867 258.610464 
L 223.099503 257.110584 
L 223.132586 175.266184 
L 223.360492 262.071521 
L 223.6031 261.636565 
L 223.911875 261.991835 
L 224.621322 255.45242 
L 224.92642 256.055178 
L 226.231361 202.822828 
L 226.282824 251.789728 
L 226.521756 261.868984 
L 226.859938 214.958996 
L 226.874642 253.093491 
L 227.194444 251.774234 
L 227.19812 261.690796 
L 227.517922 262.155635 
L 227.738476 202.118191 
L 237.479583 241.323107 
L 237.497962 245.690804 
L 237.729543 253.075783 
L 237.77733 247.173738 
L 237.957448 262.217614 
L 238.016262 247.555268 
L 238.222112 245.808802 
L 238.266223 235.02454 
L 238.527211 262.17113 
L 238.861717 261.907721 
L 240.971677 200.691317 
L 254.204879 201.529523 
L 255.395867 261.613323 
L 256.531717 231.91012 
L 257.03899 239.719413 
L 257.35144 262.044959 
L 257.649187 261.845743 
L 265.728792 239.32275 
L 267.438081 224.094284 
L 274.341401 254.924808 
L 275.216262 211.078698 
L 275.491954 221.537572 
L 275.786025 221.058245 
L 276.138911 261.617549 
L 276.436658 197.488802 
L 278.351796 259.758193 
L 280.671282 214.366775 
L 282.108555 260.445028 
L 282.126934 260.435731 
L 282.428357 260.451226 
L 283.181915 248.84265 
L 287.497409 195.67593 
L 289.57061 232.494489 
L 289.864681 261.739494 
L 290.162428 261.168406 
L 290.4565 261.58012 
L 290.754247 261.792618 
L 291.048318 261.619964 
L 291.346065 261.287936 
L 291.537211 249.759932 
L 291.643812 261.513715 
L 291.831282 262.078162 
L 291.937883 261.46059 
L 292.23563 261.546918 
L 293.904484 192.579836 
L 297.095156 252.572207 
L 301.164365 239.21473 
L 302.392112 233.554487 
L 302.461954 235.789975 
L 302.785432 238.231928 
L 303.105235 239.516574 
L 304.369741 260.668151 
L 307.086223 250.968513 
L 307.137685 165.699257 
L 313.346262 255.548725 
L 313.541084 234.90833 
L 313.640333 261.9697 
L 313.838832 262.17113 
L 313.941756 261.913919 
L 314.132903 261.868984 
L 314.232152 262.031678 
L 314.43065 262.124646 
L 314.529899 261.913919 
L 314.724721 262.147888 
L 314.827646 261.79616 
L 315.022468 261.961952 
L 315.077606 253.305989 
L 315.305511 254.617498 
L 315.316539 262.147888 
L 315.529741 261.872305 
L 315.614286 262.17113 
L 315.757646 262.05492 
L 315.912033 262.101404 
L 316.02231 253.639224 
L 316.20978 262.124646 
L 316.257567 261.553558 
L 316.492824 261.659807 
L 316.547962 240.68008 
L 316.842033 262.176295 
L 316.99642 261.766056 
L 317.13978 262.186624 
L 317.224326 261.683049 
L 317.437527 262.011019 
L 317.500017 261.871097 
L 317.731598 262.037489 
L 317.966855 261.915468 
L 318.029345 262.134976 
L 318.235195 261.423162 
L 318.323417 261.866402 
L 318.470452 261.619964 
L 318.621164 262.176295 
L 318.702033 261.822501 
L 318.918911 261.814753 
L 318.974049 261.609097 
L 319.209306 261.898867 
L 319.709227 261.811936 
L 320.01065 262.141549 
L 320.304721 262.057033 
L 320.370887 182.6971 
L 320.392942 262.217614 
L 320.414998 262.217614 
L 320.602468 262.217614 
L 320.903891 262.101404 
L 321.514088 262.217614 
L 321.80816 262.008436 
L 322.109583 262.124646 
L 322.701401 261.915468 
L 322.995472 262.194372 
L 323.326302 260.424664 
L 330.42812 209.449106 
L 330.725867 261.994491 
L 331.019938 261.926315 
L 333.604088 181.82268 
L 339.753851 245.933951 
L 340.117764 262.117494 
L 340.518436 249.8529 
L 341.029385 250.309287 
L 346.83729 180.744117 
L 360.070492 195.780075 
L 366.139385 262.031678 
L 366.437132 262.016183 
L 366.734879 262.186624 
L 367.326697 262.062667 
L 373.303693 229.862673 
L 373.303693 229.862673 
" style="fill:none;stroke:#1f77b4;stroke-linecap:square;stroke-width:1.5;"/>
   </g>
   <g id="patch_3">
    <path d="M 53.721875 272.10125 
L 53.721875 54.66125 
" style="fill:none;stroke:#000000;stroke-linecap:square;stroke-linejoin:miter;stroke-width:0.8;"/>
   </g>
   <g id="patch_4">
    <path d="M 388.521875 272.10125 
L 388.521875 54.66125 
" style="fill:none;stroke:#000000;stroke-linecap:square;stroke-linejoin:miter;stroke-width:0.8;"/>
   </g>
   <g id="patch_5">
    <path d="M 53.721875 272.10125 
L 388.521875 272.10125 
" style="fill:none;stroke:#000000;stroke-linecap:square;stroke-linejoin:miter;stroke-width:0.8;"/>
   </g>
   <g id="patch_6">
    <path d="M 53.721875 54.66125 
L 388.521875 54.66125 
" style="fill:none;stroke:#000000;stroke-linecap:square;stroke-linejoin:miter;stroke-width:0.8;"/>
   </g>
   <g id="text_32">
    <!-- 24H Footfall for 34 St - Penn Station -->
    <defs>
     <path d="M 20.40625 45.90625 
L 52.9375 45.90625 
L 52.9375 75.390625 
L 64.3125 75.390625 
L 64.3125 0 
L 52.9375 0 
L 52.9375 35.203125 
L 20.40625 35.203125 
L 20.40625 0 
L 9.03125 0 
L 9.03125 75.390625 
L 20.40625 75.390625 
z
" id="Futura-Medium-72"/>
     <path id="Futura-Medium-32"/>
     <path d="M 46.6875 64.703125 
L 20.40625 64.703125 
L 20.40625 46.578125 
L 45.75 46.578125 
L 45.75 35.890625 
L 20.40625 35.890625 
L 20.40625 0 
L 9.03125 0 
L 9.03125 75.390625 
L 46.6875 75.390625 
z
" id="Futura-Medium-70"/>
     <path d="M 18.3125 37.3125 
L 18.3125 0 
L 7.28125 0 
L 7.28125 37.3125 
L 3.375 37.3125 
L 3.375 47.5625 
L 7.28125 47.5625 
L 7.28125 65.921875 
Q 7.28125 74.90625 10.40625 78.609375 
Q 14.703125 83.796875 22.90625 83.796875 
Q 25.828125 83.796875 30.28125 82.078125 
L 30.28125 70.84375 
L 29.15625 71.4375 
Q 25.59375 73.25 23.296875 73.25 
Q 20.359375 73.25 19.34375 71.140625 
Q 18.3125 69.09375 18.3125 63.234375 
L 18.3125 47.5625 
L 30.28125 47.5625 
L 30.28125 37.3125 
z
" id="Futura-Medium-102"/>
     <path d="M 42 47.5625 
L 53.03125 47.5625 
L 53.03125 0 
L 42 0 
L 42 4.984375 
Q 35.203125 -1.375 27.390625 -1.375 
Q 17.53125 -1.375 11.078125 5.765625 
Q 4.6875 13.03125 4.6875 23.921875 
Q 4.6875 34.625 11.078125 41.75 
Q 17.484375 48.875 27.09375 48.875 
Q 35.40625 48.875 42 42.046875 
z
M 15.921875 23.921875 
Q 15.921875 17.09375 19.578125 12.796875 
Q 23.34375 8.453125 29.046875 8.453125 
Q 35.15625 8.453125 38.921875 12.640625 
Q 42.671875 17 42.671875 23.6875 
Q 42.671875 30.375 38.921875 34.71875 
Q 35.15625 38.96875 29.15625 38.96875 
Q 23.484375 38.96875 19.671875 34.671875 
Q 15.921875 30.328125 15.921875 23.921875 
z
" id="Futura-Medium-97"/>
     <path d="M 17.921875 82.46875 
L 17.921875 0 
L 6.9375 0 
L 6.9375 82.46875 
z
" id="Futura-Medium-108"/>
     <path d="M 51.65625 64.15625 
L 42.4375 58.6875 
Q 39.84375 63.1875 37.5 64.546875 
Q 35.0625 66.109375 31.203125 66.109375 
Q 26.46875 66.109375 23.34375 63.421875 
Q 20.21875 60.796875 20.21875 56.78125 
Q 20.21875 51.265625 28.421875 47.90625 
L 35.9375 44.828125 
Q 45.125 41.109375 49.359375 35.765625 
Q 53.609375 30.421875 53.609375 22.65625 
Q 53.609375 12.25 46.6875 5.46875 
Q 39.703125 -1.375 29.34375 -1.375 
Q 19.53125 -1.375 13.140625 4.4375 
Q 6.84375 10.25 5.28125 20.796875 
L 16.796875 23.34375 
Q 17.578125 16.703125 19.53125 14.15625 
Q 23.046875 9.28125 29.78125 9.28125 
Q 35.109375 9.28125 38.625 12.84375 
Q 42.140625 16.40625 42.140625 21.875 
Q 42.140625 24.078125 41.53125 25.90625 
Q 40.921875 27.734375 39.625 29.265625 
Q 38.328125 30.8125 36.28125 32.15625 
Q 34.234375 33.5 31.390625 34.71875 
L 24.125 37.75 
Q 8.640625 44.28125 8.640625 56.890625 
Q 8.640625 65.375 15.140625 71.09375 
Q 21.625 76.859375 31.296875 76.859375 
Q 44.34375 76.859375 51.65625 64.15625 
z
" id="Futura-Medium-83"/>
     <path d="M 0 28.953125 
L 21.78125 28.953125 
L 21.78125 19.390625 
L 0 19.390625 
z
" id="Futura-Medium-45"/>
     <path d="M 20.40625 30.609375 
L 20.40625 0 
L 9.03125 0 
L 9.03125 75.390625 
L 21.921875 75.390625 
Q 31.390625 75.390625 36.234375 74.078125 
Q 41.109375 72.75 44.828125 69.09375 
Q 51.3125 62.75 51.3125 53.078125 
Q 51.3125 42.71875 44.375 36.65625 
Q 37.453125 30.609375 25.6875 30.609375 
z
M 20.40625 41.15625 
L 24.65625 41.15625 
Q 40.328125 41.15625 40.328125 53.21875 
Q 40.328125 64.890625 24.171875 64.890625 
L 20.40625 64.890625 
z
" id="Futura-Medium-80"/>
     <path d="M 6.9375 47.5625 
L 17.96875 47.5625 
L 17.96875 43.171875 
Q 23.734375 48.875 30.953125 48.875 
Q 39.265625 48.875 43.890625 43.65625 
Q 47.90625 39.203125 47.90625 29.15625 
L 47.90625 0 
L 36.859375 0 
L 36.859375 26.5625 
Q 36.859375 33.59375 34.90625 36.28125 
Q 33.015625 39.015625 27.984375 39.015625 
Q 22.515625 39.015625 20.21875 35.40625 
Q 17.96875 31.84375 17.96875 22.953125 
L 17.96875 0 
L 6.9375 0 
z
" id="Futura-Medium-110"/>
    </defs>
    <g style="fill:#0039a6;" transform="translate(57.071875 23.69375)scale(0.2 -0.2)">
     <use xlink:href="#Futura-Medium-50"/>
     <use x="61.71875" xlink:href="#Futura-Medium-52"/>
     <use x="123.4375" xlink:href="#Futura-Medium-72"/>
     <use x="196.777344" xlink:href="#Futura-Medium-32"/>
     <use x="227.636719" xlink:href="#Futura-Medium-70"/>
     <use x="278.466797" xlink:href="#Futura-Medium-111"/>
     <use x="338.574219" xlink:href="#Futura-Medium-111"/>
     <use x="398.681641" xlink:href="#Futura-Medium-116"/>
     <use x="426.025391" xlink:href="#Futura-Medium-102"/>
     <use x="455.728516" xlink:href="#Futura-Medium-97"/>
     <use x="515.689453" xlink:href="#Futura-Medium-108"/>
     <use x="540.591797" xlink:href="#Futura-Medium-108"/>
     <use x="565.494141" xlink:href="#Futura-Medium-32"/>
     <use x="596.353516" xlink:href="#Futura-Medium-102"/>
     <use x="626.056641" xlink:href="#Futura-Medium-111"/>
     <use x="686.164062" xlink:href="#Futura-Medium-114"/>
     <use x="723.566406" xlink:href="#Futura-Medium-32"/>
     <use x="754.425781" xlink:href="#Futura-Medium-51"/>
     <use x="816.113281" xlink:href="#Futura-Medium-52"/>
     <use x="877.832031" xlink:href="#Futura-Medium-32"/>
     <use x="908.691406" xlink:href="#Futura-Medium-83"/>
     <use x="967.007812" xlink:href="#Futura-Medium-116"/>
     <use x="994.351562" xlink:href="#Futura-Medium-32"/>
     <use x="1025.210938" xlink:href="#Futura-Medium-45"/>
     <use x="1046.988281" xlink:href="#Futura-Medium-32"/>
     <use x="1077.847656" xlink:href="#Futura-Medium-80"/>
     <use x="1131.820312" xlink:href="#Futura-Medium-101"/>
     <use x="1187.142578" xlink:href="#Futura-Medium-110"/>
     <use x="1241.976562" xlink:href="#Futura-Medium-110"/>
     <use x="1296.810547" xlink:href="#Futura-Medium-32"/>
     <use x="1327.669922" xlink:href="#Futura-Medium-83"/>
     <use x="1385.986328" xlink:href="#Futura-Medium-116"/>
     <use x="1413.330078" xlink:href="#Futura-Medium-97"/>
     <use x="1473.291016" xlink:href="#Futura-Medium-116"/>
     <use x="1500.634766" xlink:href="#Futura-Medium-105"/>
     <use x="1525.537109" xlink:href="#Futura-Medium-111"/>
     <use x="1585.644531" xlink:href="#Futura-Medium-110"/>
    </g>
    <!--  Jan to June 2019 -->
    <defs>
     <path d="M 31.984375 75.390625 
L 31.984375 26.609375 
Q 31.984375 17.875 30.765625 13.578125 
Q 29.546875 8.6875 26.609375 5.328125 
Q 20.90625 -1.375 11.46875 -1.375 
Q 4.34375 -1.375 -1.859375 2.34375 
L 3.71875 12.0625 
Q 7.859375 9.28125 11.46875 9.28125 
Q 16.546875 9.28125 18.5 13.140625 
Q 20.5625 17 20.5625 26.609375 
L 20.5625 75.390625 
z
" id="Futura-Medium-74"/>
    </defs>
    <g style="fill:#0039a6;" transform="translate(139.220313 48.66125)scale(0.2 -0.2)">
     <use xlink:href="#Futura-Medium-32"/>
     <use x="30.859375" xlink:href="#Futura-Medium-74"/>
     <use x="71.875" xlink:href="#Futura-Medium-97"/>
     <use x="131.835938" xlink:href="#Futura-Medium-110"/>
     <use x="186.669922" xlink:href="#Futura-Medium-32"/>
     <use x="217.529297" xlink:href="#Futura-Medium-116"/>
     <use x="244.873047" xlink:href="#Futura-Medium-111"/>
     <use x="304.980469" xlink:href="#Futura-Medium-32"/>
     <use x="335.839844" xlink:href="#Futura-Medium-74"/>
     <use x="376.855469" xlink:href="#Futura-Medium-117"/>
     <use x="431.347656" xlink:href="#Futura-Medium-110"/>
     <use x="486.181641" xlink:href="#Futura-Medium-101"/>
     <use x="541.503906" xlink:href="#Futura-Medium-32"/>
     <use x="572.363281" xlink:href="#Futura-Medium-50"/>
     <use x="634.082031" xlink:href="#Futura-Medium-48"/>
     <use x="695.691406" xlink:href="#Futura-Medium-49"/>
     <use x="757.285156" xlink:href="#Futura-Medium-57"/>
    </g>
   </g>
  </g>
 </g>
 <defs>
  <clipPath id="p26abaa7ec4">
   <rect height="217.44" width="334.8" x="53.721875" y="54.66125"/>
  </clipPath>
 </defs>
</svg>
