<?xml version="1.0" encoding="utf-8" standalone="no"?>
<!DOCTYPE svg PUBLIC "-//W3C//DTD SVG 1.1//EN"
  "http://www.w3.org/Graphics/SVG/1.1/DTD/svg11.dtd">
<!-- Created with matplotlib (https://matplotlib.org/) -->
<svg height="368.641359pt" version="1.1" viewBox="0 0 446.503125 368.641359" width="446.503125pt" xmlns="http://www.w3.org/2000/svg" xmlns:xlink="http://www.w3.org/1999/xlink">
 <defs>
  <style type="text/css">
*{stroke-linecap:butt;stroke-linejoin:round;}
  </style>
 </defs>
 <g id="figure_1">
  <g id="patch_1">
   <path d="M 0 368.641359 
L 446.503125 368.641359 
L 446.503125 0 
L 0 0 
z
" style="fill:#ffffff;"/>
  </g>
  <g id="axes_1">
   <g id="patch_2">
    <path d="M 78.409375 272.38875 
L 413.209375 272.38875 
L 413.209375 54.94875 
L 78.409375 54.94875 
z
" style="fill:#ffffff;"/>
   </g>
   <g id="patch_3">
    <path clip-path="url(#pc2e064ebc8)" d="M 93.627557 272.38875 
L 118.473568 272.38875 
L 118.473568 65.303036 
L 93.627557 65.303036 
z
" style="fill:#0039a6;"/>
   </g>
   <g id="patch_4">
    <path clip-path="url(#pc2e064ebc8)" d="M 124.685071 272.38875 
L 149.531082 272.38875 
L 149.531082 94.895927 
L 124.685071 94.895927 
z
" style="fill:#0039a6;"/>
   </g>
   <g id="patch_5">
    <path clip-path="url(#pc2e064ebc8)" d="M 155.742585 272.38875 
L 180.588596 272.38875 
L 180.588596 125.982493 
L 155.742585 125.982493 
z
" style="fill:#0039a6;"/>
   </g>
   <g id="patch_6">
    <path clip-path="url(#pc2e064ebc8)" d="M 186.800099 272.38875 
L 211.64611 272.38875 
L 211.64611 142.979491 
L 186.800099 142.979491 
z
" style="fill:#a7a9ac;"/>
   </g>
   <g id="patch_7">
    <path clip-path="url(#pc2e064ebc8)" d="M 217.857612 272.38875 
L 242.703624 272.38875 
L 242.703624 146.260341 
L 217.857612 146.260341 
z
" style="fill:#a7a9ac;"/>
   </g>
   <g id="patch_8">
    <path clip-path="url(#pc2e064ebc8)" d="M 248.915126 272.38875 
L 273.761138 272.38875 
L 273.761138 146.698601 
L 248.915126 146.698601 
z
" style="fill:#a7a9ac;"/>
   </g>
   <g id="patch_9">
    <path clip-path="url(#pc2e064ebc8)" d="M 279.97264 272.38875 
L 304.818651 272.38875 
L 304.818651 160.534544 
L 279.97264 160.534544 
z
" style="fill:#a7a9ac;"/>
   </g>
   <g id="patch_10">
    <path clip-path="url(#pc2e064ebc8)" d="M 311.030154 272.38875 
L 335.876165 272.38875 
L 335.876165 161.358957 
L 311.030154 161.358957 
z
" style="fill:#a7a9ac;"/>
   </g>
   <g id="patch_11">
    <path clip-path="url(#pc2e064ebc8)" d="M 342.087668 272.38875 
L 366.933679 272.38875 
L 366.933679 170.470103 
L 342.087668 170.470103 
z
" style="fill:#a7a9ac;"/>
   </g>
   <g id="patch_12">
    <path clip-path="url(#pc2e064ebc8)" d="M 373.145182 272.38875 
L 397.991193 272.38875 
L 397.991193 180.967384 
L 373.145182 180.967384 
z
" style="fill:#a7a9ac;"/>
   </g>
   <g id="patch_13">
    <path clip-path="url(#pc2e064ebc8)" d="M 93.627557 272.38875 
L 118.473568 272.38875 
L 118.473568 65.303036 
L 93.627557 65.303036 
z
" style="fill:#a7a9ac;"/>
   </g>
   <g id="patch_14">
    <path clip-path="url(#pc2e064ebc8)" d="M 124.685071 272.38875 
L 149.531082 272.38875 
L 149.531082 94.895927 
L 124.685071 94.895927 
z
" style="fill:#a7a9ac;"/>
   </g>
   <g id="patch_15">
    <path clip-path="url(#pc2e064ebc8)" d="M 155.742585 272.38875 
L 180.588596 272.38875 
L 180.588596 125.982493 
L 155.742585 125.982493 
z
" style="fill:#a7a9ac;"/>
   </g>
   <g id="patch_16">
    <path clip-path="url(#pc2e064ebc8)" d="M 186.800099 272.38875 
L 211.64611 272.38875 
L 211.64611 142.979491 
L 186.800099 142.979491 
z
" style="fill:#a7a9ac;"/>
   </g>
   <g id="patch_17">
    <path clip-path="url(#pc2e064ebc8)" d="M 217.857612 272.38875 
L 242.703624 272.38875 
L 242.703624 146.260341 
L 217.857612 146.260341 
z
" style="fill:#a7a9ac;"/>
   </g>
   <g id="patch_18">
    <path clip-path="url(#pc2e064ebc8)" d="M 248.915126 272.38875 
L 273.761138 272.38875 
L 273.761138 146.698601 
L 248.915126 146.698601 
z
" style="fill:#a7a9ac;"/>
   </g>
   <g id="patch_19">
    <path clip-path="url(#pc2e064ebc8)" d="M 279.97264 272.38875 
L 304.818651 272.38875 
L 304.818651 160.534544 
L 279.97264 160.534544 
z
" style="fill:#a7a9ac;"/>
   </g>
   <g id="patch_20">
    <path clip-path="url(#pc2e064ebc8)" d="M 311.030154 272.38875 
L 335.876165 272.38875 
L 335.876165 161.358957 
L 311.030154 161.358957 
z
" style="fill:#a7a9ac;"/>
   </g>
   <g id="patch_21">
    <path clip-path="url(#pc2e064ebc8)" d="M 342.087668 272.38875 
L 366.933679 272.38875 
L 366.933679 170.470103 
L 342.087668 170.470103 
z
" style="fill:#a7a9ac;"/>
   </g>
   <g id="patch_22">
    <path clip-path="url(#pc2e064ebc8)" d="M 373.145182 272.38875 
L 397.991193 272.38875 
L 397.991193 180.967384 
L 373.145182 180.967384 
z
" style="fill:#a7a9ac;"/>
   </g>
   <g id="patch_23">
    <path clip-path="url(#pc2e064ebc8)" d="M 93.627557 272.38875 
L 118.473568 272.38875 
L 118.473568 65.303036 
L 93.627557 65.303036 
z
" style="fill:#0039a6;"/>
   </g>
   <g id="patch_24">
    <path clip-path="url(#pc2e064ebc8)" d="M 124.685071 272.38875 
L 149.531082 272.38875 
L 149.531082 94.895927 
L 124.685071 94.895927 
z
" style="fill:#ff6319;"/>
   </g>
   <g id="patch_25">
    <path clip-path="url(#pc2e064ebc8)" d="M 155.742585 272.38875 
L 180.588596 272.38875 
L 180.588596 125.982493 
L 155.742585 125.982493 
z
" style="fill:#6cbe45;"/>
   </g>
   <g id="patch_26">
    <path clip-path="url(#pc2e064ebc8)" d="M 186.800099 272.38875 
L 211.64611 272.38875 
L 211.64611 142.979491 
L 186.800099 142.979491 
z
" style="fill:#996633;"/>
   </g>
   <g id="patch_27">
    <path clip-path="url(#pc2e064ebc8)" d="M 217.857612 272.38875 
L 242.703624 272.38875 
L 242.703624 146.260341 
L 217.857612 146.260341 
z
" style="fill:#a7a9ac;"/>
   </g>
   <g id="patch_28">
    <path clip-path="url(#pc2e064ebc8)" d="M 248.915126 272.38875 
L 273.761138 272.38875 
L 273.761138 146.698601 
L 248.915126 146.698601 
z
" style="fill:#fccc0a;"/>
   </g>
   <g id="patch_29">
    <path clip-path="url(#pc2e064ebc8)" d="M 279.97264 272.38875 
L 304.818651 272.38875 
L 304.818651 160.534544 
L 279.97264 160.534544 
z
" style="fill:#808183;"/>
   </g>
   <g id="patch_30">
    <path clip-path="url(#pc2e064ebc8)" d="M 311.030154 272.38875 
L 335.876165 272.38875 
L 335.876165 161.358957 
L 311.030154 161.358957 
z
" style="fill:#ee352e;"/>
   </g>
   <g id="patch_31">
    <path clip-path="url(#pc2e064ebc8)" d="M 342.087668 272.38875 
L 366.933679 272.38875 
L 366.933679 170.470103 
L 342.087668 170.470103 
z
" style="fill:#00933c;"/>
   </g>
   <g id="patch_32">
    <path clip-path="url(#pc2e064ebc8)" d="M 373.145182 272.38875 
L 397.991193 272.38875 
L 397.991193 180.967384 
L 373.145182 180.967384 
z
" style="fill:#b933ad;"/>
   </g>
   <g id="matplotlib.axis_1">
    <g id="xtick_1">
     <g id="line2d_1">
      <defs>
       <path d="M 0 0 
L 0 3.5 
" id="m7e0f9877e5" style="stroke:#000000;stroke-width:0.8;"/>
      </defs>
      <g>
       <use style="stroke:#000000;stroke-width:0.8;" x="106.050562" xlink:href="#m7e0f9877e5" y="272.38875"/>
      </g>
     </g>
     <g id="text_1">
      <!-- 34 ST-PENN STA -->
      <defs>
       <path d="M 25.875 35.015625 
L 25.875 44.734375 
Q 33.109375 44.734375 35.59375 46.34375 
Q 40.046875 49.171875 40.046875 55.421875 
Q 40.046875 60.25 36.8125 63.28125 
Q 33.640625 66.359375 28.5625 66.359375 
Q 23.828125 66.359375 21.234375 64.0625 
Q 18.75 61.71875 17.53125 56.15625 
L 6.203125 56.15625 
Q 7.953125 66.796875 13.421875 71.75 
Q 18.890625 76.703125 28.71875 76.703125 
Q 38.625 76.703125 44.875 70.84375 
Q 51.125 65.046875 51.125 55.859375 
Q 51.125 45.515625 42.921875 39.75 
Q 52.296875 34.234375 52.296875 21.828125 
Q 52.296875 11.671875 45.453125 5.21875 
Q 38.625 -1.21875 27.9375 -1.21875 
Q 14.3125 -1.21875 7.71875 8.796875 
Q 4.984375 12.984375 4.25 20.40625 
L 15.234375 20.40625 
Q 16.109375 14.9375 19.5 12.03125 
Q 22.90625 9.125 28.375 9.125 
Q 33.890625 9.125 37.5 12.796875 
Q 41.109375 16.546875 41.109375 22.3125 
Q 41.109375 29.9375 35.6875 33.15625 
Q 32.515625 35.015625 25.875 35.015625 
z
" id="Futura-Medium-51"/>
       <path d="M 49.3125 21.046875 
L 57.328125 21.046875 
L 57.328125 10.6875 
L 49.3125 10.6875 
L 49.3125 0 
L 37.9375 0 
L 37.9375 10.6875 
L 0.921875 10.6875 
L 49.3125 81 
z
M 37.9375 21.046875 
L 37.9375 46.296875 
L 20.5625 21.046875 
z
" id="Futura-Medium-52"/>
       <path id="Futura-Medium-32"/>
       <path d="M 51.65625 64.15625 
L 42.4375 58.6875 
Q 39.84375 63.1875 37.5 64.546875 
Q 35.0625 66.109375 31.203125 66.109375 
Q 26.46875 66.109375 23.34375 63.421875 
Q 20.21875 60.796875 20.21875 56.78125 
Q 20.21875 51.265625 28.421875 47.90625 
L 35.9375 44.828125 
Q 45.125 41.109375 49.359375 35.765625 
Q 53.609375 30.421875 53.609375 22.65625 
Q 53.609375 12.25 46.6875 5.46875 
Q 39.703125 -1.375 29.34375 -1.375 
Q 19.53125 -1.375 13.140625 4.4375 
Q 6.84375 10.25 5.28125 20.796875 
L 16.796875 23.34375 
Q 17.578125 16.703125 19.53125 14.15625 
Q 23.046875 9.28125 29.78125 9.28125 
Q 35.109375 9.28125 38.625 12.84375 
Q 42.140625 16.40625 42.140625 21.875 
Q 42.140625 24.078125 41.53125 25.90625 
Q 40.921875 27.734375 39.625 29.265625 
Q 38.328125 30.8125 36.28125 32.15625 
Q 34.234375 33.5 31.390625 34.71875 
L 24.125 37.75 
Q 8.640625 44.28125 8.640625 56.890625 
Q 8.640625 65.375 15.140625 71.09375 
Q 21.625 76.859375 31.296875 76.859375 
Q 44.34375 76.859375 51.65625 64.15625 
z
" id="Futura-Medium-83"/>
       <path d="M 29.828125 64.703125 
L 29.828125 0 
L 18.453125 0 
L 18.453125 64.703125 
L 1.125 64.703125 
L 1.125 75.390625 
L 47.125 75.390625 
L 47.125 64.703125 
z
" id="Futura-Medium-84"/>
       <path d="M 0 28.953125 
L 21.78125 28.953125 
L 21.78125 19.390625 
L 0 19.390625 
z
" id="Futura-Medium-45"/>
       <path d="M 20.40625 30.609375 
L 20.40625 0 
L 9.03125 0 
L 9.03125 75.390625 
L 21.921875 75.390625 
Q 31.390625 75.390625 36.234375 74.078125 
Q 41.109375 72.75 44.828125 69.09375 
Q 51.3125 62.75 51.3125 53.078125 
Q 51.3125 42.71875 44.375 36.65625 
Q 37.453125 30.609375 25.6875 30.609375 
z
M 20.40625 41.15625 
L 24.65625 41.15625 
Q 40.328125 41.15625 40.328125 53.21875 
Q 40.328125 64.890625 24.171875 64.890625 
L 20.40625 64.890625 
z
" id="Futura-Medium-80"/>
       <path d="M 50.640625 64.703125 
L 20.40625 64.703125 
L 20.40625 46.578125 
L 49.75 46.578125 
L 49.75 35.890625 
L 20.40625 35.890625 
L 20.40625 10.6875 
L 50.640625 10.6875 
L 50.640625 0 
L 9.03125 0 
L 9.03125 75.390625 
L 50.640625 75.390625 
z
" id="Futura-Medium-69"/>
       <path d="M 9.03125 0 
L 9.03125 80.515625 
L 64.015625 23 
L 64.015625 75.390625 
L 75.390625 75.390625 
L 75.390625 -4.59375 
L 20.40625 52.78125 
L 20.40625 0 
z
" id="Futura-Medium-78"/>
       <path d="M 53.328125 18.3125 
L 21.046875 18.3125 
L 12.640625 0 
L 0.390625 0 
L 37.703125 80.125 
L 73.6875 0 
L 61.234375 0 
z
M 48.6875 29 
L 37.5 54.640625 
L 25.78125 29 
z
" id="Futura-Medium-65"/>
      </defs>
      <g transform="translate(49.529529 339.911566)rotate(-45)scale(0.1 -0.1)">
       <use xlink:href="#Futura-Medium-51"/>
       <use x="61.6875" xlink:href="#Futura-Medium-52"/>
       <use x="123.40625" xlink:href="#Futura-Medium-32"/>
       <use x="154.265625" xlink:href="#Futura-Medium-83"/>
       <use x="212.582031" xlink:href="#Futura-Medium-84"/>
       <use x="260.839844" xlink:href="#Futura-Medium-45"/>
       <use x="282.617188" xlink:href="#Futura-Medium-80"/>
       <use x="336.621094" xlink:href="#Futura-Medium-69"/>
       <use x="393.164062" xlink:href="#Futura-Medium-78"/>
       <use x="477.587891" xlink:href="#Futura-Medium-78"/>
       <use x="562.011719" xlink:href="#Futura-Medium-32"/>
       <use x="592.871094" xlink:href="#Futura-Medium-83"/>
       <use x="651.1875" xlink:href="#Futura-Medium-84"/>
       <use x="699.367188" xlink:href="#Futura-Medium-65"/>
      </g>
     </g>
    </g>
    <g id="xtick_2">
     <g id="line2d_2">
      <g>
       <use style="stroke:#000000;stroke-width:0.8;" x="137.108076" xlink:href="#m7e0f9877e5" y="272.38875"/>
      </g>
     </g>
     <g id="text_2">
      <!-- GRD CNTRL-42 ST -->
      <defs>
       <path d="M 47.796875 39.265625 
L 78.953125 39.265625 
L 78.953125 36.765625 
Q 78.953125 28.265625 76.953125 21.734375 
Q 75 15.671875 70.359375 10.40625 
Q 59.859375 -1.421875 43.65625 -1.421875 
Q 27.828125 -1.421875 16.546875 10.015625 
Q 5.28125 21.484375 5.28125 37.546875 
Q 5.28125 53.953125 16.75 65.375 
Q 28.21875 76.859375 44.671875 76.859375 
Q 53.515625 76.859375 61.1875 73.25 
Q 68.5 69.625 75.59375 61.53125 
L 67.484375 53.765625 
Q 58.203125 66.109375 44.875 66.109375 
Q 32.90625 66.109375 24.8125 57.859375 
Q 16.703125 49.75 16.703125 37.546875 
Q 16.703125 24.953125 25.734375 16.796875 
Q 34.1875 9.234375 44.046875 9.234375 
Q 52.4375 9.234375 59.125 14.890625 
Q 65.828125 20.609375 66.609375 28.5625 
L 47.796875 28.5625 
z
" id="Futura-Medium-71"/>
       <path d="M 34.578125 32.125 
L 57.90625 0 
L 44 0 
L 22.46875 30.859375 
L 20.40625 30.859375 
L 20.40625 0 
L 9.03125 0 
L 9.03125 75.390625 
L 22.359375 75.390625 
Q 37.3125 75.390625 43.953125 69.78125 
Q 51.265625 63.53125 51.265625 53.265625 
Q 51.265625 45.265625 46.671875 39.5 
Q 42.09375 33.734375 34.578125 32.125 
z
M 20.40625 40.765625 
L 24.03125 40.765625 
Q 40.1875 40.765625 40.1875 53.125 
Q 40.1875 64.703125 24.46875 64.703125 
L 20.40625 64.703125 
z
" id="Futura-Medium-82"/>
       <path d="M 9.03125 0 
L 9.03125 75.390625 
L 24.859375 75.390625 
Q 36.234375 75.390625 42.828125 73.140625 
Q 49.90625 70.953125 55.671875 65.671875 
Q 67.328125 55.03125 67.328125 37.703125 
Q 67.328125 20.3125 55.171875 9.578125 
Q 49.078125 4.203125 42.390625 2.09375 
Q 36.140625 0 24.65625 0 
z
M 20.40625 10.6875 
L 25.53125 10.6875 
Q 33.203125 10.6875 38.28125 12.3125 
Q 43.359375 14.015625 47.46875 17.71875 
Q 55.859375 25.390625 55.859375 37.703125 
Q 55.859375 50.09375 47.5625 57.8125 
Q 40.09375 64.703125 25.53125 64.703125 
L 20.40625 64.703125 
z
" id="Futura-Medium-68"/>
       <path d="M 64.75 71.34375 
L 64.75 57.859375 
Q 54.890625 66.109375 44.34375 66.109375 
Q 32.71875 66.109375 24.75 57.765625 
Q 16.75 49.46875 16.75 37.453125 
Q 16.75 25.59375 24.75 17.4375 
Q 32.765625 9.28125 44.390625 9.28125 
Q 50.390625 9.28125 54.59375 11.234375 
Q 56.9375 12.203125 59.453125 13.859375 
Q 61.96875 15.53125 64.75 17.875 
L 64.75 4.15625 
Q 54.984375 -1.375 44.234375 -1.375 
Q 28.078125 -1.375 16.65625 9.90625 
Q 5.28125 21.296875 5.28125 37.359375 
Q 5.28125 51.765625 14.796875 63.03125 
Q 26.515625 76.859375 45.125 76.859375 
Q 55.28125 76.859375 64.75 71.34375 
z
" id="Futura-Medium-67"/>
       <path d="M 20.40625 75.390625 
L 20.40625 10.6875 
L 42.578125 10.6875 
L 42.578125 0 
L 9.03125 0 
L 9.03125 75.390625 
z
" id="Futura-Medium-76"/>
       <path d="M 25.046875 10.6875 
L 53.125 10.6875 
L 53.125 0 
L 2.484375 0 
L 28.65625 31.6875 
Q 32.515625 36.421875 35.125 39.890625 
Q 37.75 43.359375 39.109375 45.703125 
Q 41.890625 50.296875 41.890625 53.953125 
Q 41.890625 59.234375 38.171875 62.796875 
Q 34.46875 66.359375 29 66.359375 
Q 17.578125 66.359375 15.921875 52.828125 
L 4.59375 52.828125 
Q 7.328125 76.65625 28.65625 76.65625 
Q 38.96875 76.65625 45.953125 70.125 
Q 52.984375 63.578125 52.984375 53.90625 
Q 52.984375 47.75 49.703125 41.84375 
Q 48.046875 38.765625 44.84375 34.546875 
Q 41.65625 30.328125 36.765625 24.5625 
z
" id="Futura-Medium-50"/>
      </defs>
      <g transform="translate(76.032833 344.465776)rotate(-45)scale(0.1 -0.1)">
       <use xlink:href="#Futura-Medium-71"/>
       <use x="84.228516" xlink:href="#Futura-Medium-82"/>
       <use x="144.433594" xlink:href="#Futura-Medium-68"/>
       <use x="217.041016" xlink:href="#Futura-Medium-32"/>
       <use x="247.900391" xlink:href="#Futura-Medium-67"/>
       <use x="317.96875" xlink:href="#Futura-Medium-78"/>
       <use x="402.392578" xlink:href="#Futura-Medium-84"/>
       <use x="450.634766" xlink:href="#Futura-Medium-82"/>
       <use x="510.839844" xlink:href="#Futura-Medium-76"/>
       <use x="555.207031" xlink:href="#Futura-Medium-45"/>
       <use x="576.984375" xlink:href="#Futura-Medium-52"/>
       <use x="638.703125" xlink:href="#Futura-Medium-50"/>
       <use x="700.421875" xlink:href="#Futura-Medium-32"/>
       <use x="731.28125" xlink:href="#Futura-Medium-83"/>
       <use x="789.597656" xlink:href="#Futura-Medium-84"/>
      </g>
     </g>
    </g>
    <g id="xtick_3">
     <g id="line2d_3">
      <g>
       <use style="stroke:#000000;stroke-width:0.8;" x="168.16559" xlink:href="#m7e0f9877e5" y="272.38875"/>
      </g>
     </g>
     <g id="text_3">
      <!-- 34 ST-HERALD SQ -->
      <defs>
       <path d="M 20.40625 45.90625 
L 52.9375 45.90625 
L 52.9375 75.390625 
L 64.3125 75.390625 
L 64.3125 0 
L 52.9375 0 
L 52.9375 35.203125 
L 20.40625 35.203125 
L 20.40625 0 
L 9.03125 0 
L 9.03125 75.390625 
L 20.40625 75.390625 
z
" id="Futura-Medium-72"/>
       <path d="M 85.75 -1.375 
L 71.4375 -1.375 
L 65.53125 4.6875 
Q 56.109375 -1.375 44.53125 -1.375 
Q 29.546875 -1.375 17.921875 8.796875 
Q 5.28125 19.96875 5.28125 37.359375 
Q 5.28125 54.390625 17.234375 65.765625 
Q 28.859375 76.8125 44.671875 76.8125 
Q 59.03125 76.8125 70.40625 67.140625 
Q 84.078125 55.515625 84.078125 36.8125 
Q 84.078125 22.171875 73.296875 10.796875 
z
M 54.4375 29.828125 
L 65.375 18.953125 
Q 72.609375 26.46875 72.609375 37.546875 
Q 72.609375 49.703125 64.546875 57.90625 
Q 56.5 66.109375 44.53125 66.109375 
Q 32.421875 66.109375 24.609375 57.90625 
Q 16.75 49.75 16.75 37.25 
Q 16.75 25.046875 24.859375 17.28125 
Q 33.296875 9.28125 44.140625 9.28125 
Q 51.515625 9.28125 57.46875 12.640625 
L 39.75 29.828125 
z
" id="Futura-Medium-81"/>
      </defs>
      <g transform="translate(106.778778 344.777345)rotate(-45)scale(0.1 -0.1)">
       <use xlink:href="#Futura-Medium-51"/>
       <use x="61.6875" xlink:href="#Futura-Medium-52"/>
       <use x="123.40625" xlink:href="#Futura-Medium-32"/>
       <use x="154.265625" xlink:href="#Futura-Medium-83"/>
       <use x="212.582031" xlink:href="#Futura-Medium-84"/>
       <use x="260.839844" xlink:href="#Futura-Medium-45"/>
       <use x="282.617188" xlink:href="#Futura-Medium-72"/>
       <use x="355.957031" xlink:href="#Futura-Medium-69"/>
       <use x="412.5" xlink:href="#Futura-Medium-82"/>
       <use x="472.705078" xlink:href="#Futura-Medium-65"/>
       <use x="546.777344" xlink:href="#Futura-Medium-76"/>
       <use x="591.113281" xlink:href="#Futura-Medium-68"/>
       <use x="663.720703" xlink:href="#Futura-Medium-32"/>
       <use x="694.580078" xlink:href="#Futura-Medium-83"/>
       <use x="752.880859" xlink:href="#Futura-Medium-81"/>
      </g>
     </g>
    </g>
    <g id="xtick_4">
     <g id="line2d_4">
      <g>
       <use style="stroke:#000000;stroke-width:0.8;" x="199.223104" xlink:href="#m7e0f9877e5" y="272.38875"/>
      </g>
     </g>
     <g id="text_4">
      <!-- 14 ST-UNION SQ -->
      <defs>
       <path d="M 27.09375 64.75 
L 14.0625 64.75 
L 20.3125 75.390625 
L 38.484375 75.390625 
L 38.484375 0 
L 27.09375 0 
z
" id="Futura-Medium-49"/>
       <path d="M 20.40625 75.390625 
L 20.40625 29.984375 
Q 20.40625 20.265625 23.578125 15.765625 
Q 28.328125 9.28125 36.921875 9.28125 
Q 45.5625 9.28125 50.296875 15.765625 
Q 53.46875 20.125 53.46875 29.984375 
L 53.46875 75.390625 
L 64.84375 75.390625 
L 64.84375 26.859375 
Q 64.84375 14.9375 57.421875 7.234375 
Q 49.078125 -1.375 36.921875 -1.375 
Q 24.75 -1.375 16.453125 7.234375 
Q 9.03125 14.9375 9.03125 26.859375 
L 9.03125 75.390625 
z
" id="Futura-Medium-85"/>
       <path d="M 20.40625 75.390625 
L 20.40625 0 
L 9.03125 0 
L 9.03125 75.390625 
z
" id="Futura-Medium-73"/>
       <path d="M 5.28125 38.03125 
Q 5.28125 53.953125 16.9375 65.375 
Q 28.5625 76.8125 44.875 76.8125 
Q 60.984375 76.8125 72.515625 65.28125 
Q 84.078125 53.765625 84.078125 37.59375 
Q 84.078125 21.34375 72.46875 10.015625 
Q 60.796875 -1.375 44.28125 -1.375 
Q 29.6875 -1.375 18.0625 8.734375 
Q 5.28125 19.921875 5.28125 38.03125 
z
M 16.75 37.890625 
Q 16.75 25.390625 25.140625 17.328125 
Q 33.5 9.28125 44.4375 9.28125 
Q 56.296875 9.28125 64.453125 17.484375 
Q 72.609375 25.78125 72.609375 37.703125 
Q 72.609375 49.75 64.546875 57.90625 
Q 56.546875 66.109375 44.734375 66.109375 
Q 32.953125 66.109375 24.859375 57.90625 
Q 16.75 49.8125 16.75 37.890625 
z
" id="Futura-Medium-79"/>
      </defs>
      <g transform="translate(139.223989 343.389648)rotate(-45)scale(0.1 -0.1)">
       <use xlink:href="#Futura-Medium-49"/>
       <use x="61.609375" xlink:href="#Futura-Medium-52"/>
       <use x="123.328125" xlink:href="#Futura-Medium-32"/>
       <use x="154.1875" xlink:href="#Futura-Medium-83"/>
       <use x="212.503906" xlink:href="#Futura-Medium-84"/>
       <use x="260.761719" xlink:href="#Futura-Medium-45"/>
       <use x="282.539062" xlink:href="#Futura-Medium-85"/>
       <use x="356.416016" xlink:href="#Futura-Medium-78"/>
       <use x="440.839844" xlink:href="#Futura-Medium-73"/>
       <use x="470.332031" xlink:href="#Futura-Medium-79"/>
       <use x="559.6875" xlink:href="#Futura-Medium-78"/>
       <use x="644.111328" xlink:href="#Futura-Medium-32"/>
       <use x="674.970703" xlink:href="#Futura-Medium-83"/>
       <use x="733.271484" xlink:href="#Futura-Medium-81"/>
      </g>
     </g>
    </g>
    <g id="xtick_5">
     <g id="line2d_5">
      <g>
       <use style="stroke:#000000;stroke-width:0.8;" x="230.280618" xlink:href="#m7e0f9877e5" y="272.38875"/>
      </g>
     </g>
     <g id="text_5">
      <!-- 23 ST -->
      <g transform="translate(210.005436 303.665715)rotate(-45)scale(0.1 -0.1)">
       <use xlink:href="#Futura-Medium-50"/>
       <use x="61.71875" xlink:href="#Futura-Medium-51"/>
       <use x="123.4375" xlink:href="#Futura-Medium-32"/>
       <use x="154.296875" xlink:href="#Futura-Medium-83"/>
       <use x="212.613281" xlink:href="#Futura-Medium-84"/>
      </g>
     </g>
    </g>
    <g id="xtick_6">
     <g id="line2d_6">
      <g>
       <use style="stroke:#000000;stroke-width:0.8;" x="261.338132" xlink:href="#m7e0f9877e5" y="272.38875"/>
      </g>
     </g>
     <g id="text_6">
      <!-- TIMES SQ-42 ST -->
      <defs>
       <path d="M 6.390625 0 
L 22.265625 81.0625 
L 48.140625 22.46875 
L 74.953125 81.0625 
L 89.203125 0 
L 77.546875 0 
L 70.265625 45.515625 
L 47.953125 -3.46875 
L 26.265625 45.5625 
L 18.171875 0 
z
" id="Futura-Medium-77"/>
      </defs>
      <g transform="translate(206.483219 338.245446)rotate(-45)scale(0.1 -0.1)">
       <use xlink:href="#Futura-Medium-84"/>
       <use x="48.242188" xlink:href="#Futura-Medium-73"/>
       <use x="77.734375" xlink:href="#Futura-Medium-77"/>
       <use x="173.876953" xlink:href="#Futura-Medium-69"/>
       <use x="230.419922" xlink:href="#Futura-Medium-83"/>
       <use x="288.720703" xlink:href="#Futura-Medium-32"/>
       <use x="319.580078" xlink:href="#Futura-Medium-83"/>
       <use x="377.880859" xlink:href="#Futura-Medium-81"/>
       <use x="467.236328" xlink:href="#Futura-Medium-45"/>
       <use x="489.013672" xlink:href="#Futura-Medium-52"/>
       <use x="550.732422" xlink:href="#Futura-Medium-50"/>
       <use x="612.451172" xlink:href="#Futura-Medium-32"/>
       <use x="643.310547" xlink:href="#Futura-Medium-83"/>
       <use x="701.626953" xlink:href="#Futura-Medium-84"/>
      </g>
     </g>
    </g>
    <g id="xtick_7">
     <g id="line2d_7">
      <g>
       <use style="stroke:#000000;stroke-width:0.8;" x="292.395646" xlink:href="#m7e0f9877e5" y="272.38875"/>
      </g>
     </g>
     <g id="text_7">
      <!-- FULTON ST -->
      <defs>
       <path d="M 46.6875 64.703125 
L 20.40625 64.703125 
L 20.40625 46.578125 
L 45.75 46.578125 
L 45.75 35.890625 
L 20.40625 35.890625 
L 20.40625 0 
L 9.03125 0 
L 9.03125 75.390625 
L 46.6875 75.390625 
z
" id="Futura-Medium-70"/>
      </defs>
      <g transform="translate(253.202043 322.584135)rotate(-45)scale(0.1 -0.1)">
       <use xlink:href="#Futura-Medium-70"/>
       <use x="50.830078" xlink:href="#Futura-Medium-85"/>
       <use x="124.707031" xlink:href="#Futura-Medium-76"/>
       <use x="168.980469" xlink:href="#Futura-Medium-84"/>
       <use x="217.191406" xlink:href="#Futura-Medium-79"/>
       <use x="306.546875" xlink:href="#Futura-Medium-78"/>
       <use x="390.970703" xlink:href="#Futura-Medium-32"/>
       <use x="421.830078" xlink:href="#Futura-Medium-83"/>
       <use x="480.146484" xlink:href="#Futura-Medium-84"/>
      </g>
     </g>
    </g>
    <g id="xtick_8">
     <g id="line2d_8">
      <g>
       <use style="stroke:#000000;stroke-width:0.8;" x="323.45316" xlink:href="#m7e0f9877e5" y="272.38875"/>
      </g>
     </g>
     <g id="text_8">
      <!-- 42 ST-PORT AUTH -->
      <g transform="translate(262.591153 344.252539)rotate(-45)scale(0.1 -0.1)">
       <use xlink:href="#Futura-Medium-52"/>
       <use x="61.71875" xlink:href="#Futura-Medium-50"/>
       <use x="123.4375" xlink:href="#Futura-Medium-32"/>
       <use x="154.296875" xlink:href="#Futura-Medium-83"/>
       <use x="212.613281" xlink:href="#Futura-Medium-84"/>
       <use x="260.871094" xlink:href="#Futura-Medium-45"/>
       <use x="282.648438" xlink:href="#Futura-Medium-80"/>
       <use x="336.652344" xlink:href="#Futura-Medium-79"/>
       <use x="426.007812" xlink:href="#Futura-Medium-82"/>
       <use x="486.212891" xlink:href="#Futura-Medium-84"/>
       <use x="534.455078" xlink:href="#Futura-Medium-32"/>
       <use x="565.314453" xlink:href="#Futura-Medium-65"/>
       <use x="639.355469" xlink:href="#Futura-Medium-85"/>
       <use x="713.232422" xlink:href="#Futura-Medium-84"/>
       <use x="761.474609" xlink:href="#Futura-Medium-72"/>
      </g>
     </g>
    </g>
    <g id="xtick_9">
     <g id="line2d_9">
      <g>
       <use style="stroke:#000000;stroke-width:0.8;" x="354.510674" xlink:href="#m7e0f9877e5" y="272.38875"/>
      </g>
     </g>
     <g id="text_9">
      <!-- 86 ST -->
      <defs>
       <path d="M 17.390625 39.203125 
Q 9.078125 45.0625 9.078125 55.171875 
Q 9.078125 64.359375 15.375 70.515625 
Q 21.734375 76.65625 31.15625 76.65625 
Q 40.53125 76.65625 46.78125 70.515625 
Q 53.03125 64.40625 53.03125 55.125 
Q 53.03125 45.40625 44.78125 39.265625 
Q 49.3125 36.8125 51.90625 32.125 
Q 54.546875 27.4375 54.546875 21.578125 
Q 54.546875 11.578125 48 5.171875 
Q 41.453125 -1.21875 31.25 -1.21875 
Q 20.796875 -1.21875 14.015625 5.21875 
Q 7.171875 11.671875 7.171875 21.4375 
Q 7.171875 34.125 17.390625 39.203125 
z
M 19.78125 55.21875 
Q 19.78125 50.390625 23.046875 47.125 
Q 26.375 43.796875 31.0625 43.796875 
Q 35.6875 43.796875 39 47.109375 
Q 42.328125 50.4375 42.328125 55.078125 
Q 42.328125 59.71875 39 63.03125 
Q 35.6875 66.359375 31.0625 66.359375 
Q 26.421875 66.359375 23.09375 63.03125 
Q 19.78125 59.71875 19.78125 55.21875 
z
M 18.359375 21.828125 
Q 18.359375 16.609375 21.96875 12.84375 
Q 25.640625 9.125 30.859375 9.125 
Q 36.03125 9.125 39.703125 12.796875 
Q 43.359375 16.5 43.359375 21.6875 
Q 43.359375 26.90625 39.6875 30.5625 
Q 36.03125 34.234375 30.859375 34.234375 
Q 25.734375 34.234375 22.015625 30.5625 
Q 18.359375 26.90625 18.359375 21.828125 
z
" id="Futura-Medium-56"/>
       <path d="M 39.265625 78.03125 
L 47.609375 71.78125 
L 29.59375 47.265625 
Q 31.0625 47.46875 32.078125 47.5625 
Q 33.109375 47.65625 33.6875 47.65625 
Q 42.875 47.65625 49.5625 40.625 
Q 56.203125 33.6875 56.203125 23.921875 
Q 56.203125 13.578125 48.78125 6.15625 
Q 41.40625 -1.21875 31.0625 -1.21875 
Q 20.796875 -1.21875 13.09375 6.0625 
Q 5.515625 13.328125 5.515625 23.296875 
Q 5.515625 32.234375 12.890625 42.234375 
z
M 45.125 23.1875 
Q 45.125 29.203125 40.96875 33.34375 
Q 36.765625 37.546875 30.859375 37.546875 
Q 24.90625 37.546875 20.75 33.390625 
Q 16.609375 29.25 16.609375 23.34375 
Q 16.609375 17.4375 20.75 13.28125 
Q 24.90625 9.125 30.90625 9.125 
Q 36.765625 9.125 40.921875 13.28125 
Q 45.125 17.484375 45.125 23.1875 
z
" id="Futura-Medium-54"/>
      </defs>
      <g transform="translate(334.235492 303.665715)rotate(-45)scale(0.1 -0.1)">
       <use xlink:href="#Futura-Medium-56"/>
       <use x="61.71875" xlink:href="#Futura-Medium-54"/>
       <use x="123.4375" xlink:href="#Futura-Medium-32"/>
       <use x="154.296875" xlink:href="#Futura-Medium-83"/>
       <use x="212.613281" xlink:href="#Futura-Medium-84"/>
      </g>
     </g>
    </g>
    <g id="xtick_10">
     <g id="line2d_10">
      <g>
       <use style="stroke:#000000;stroke-width:0.8;" x="385.568188" xlink:href="#m7e0f9877e5" y="272.38875"/>
      </g>
     </g>
     <g id="text_10">
      <!-- 125 ST -->
      <defs>
       <path d="M 52.59375 64.75 
L 29.34375 64.75 
L 25.640625 52.25 
Q 26.46875 52.34375 27.21875 52.390625 
Q 27.984375 52.4375 28.609375 52.4375 
Q 39.59375 52.4375 46.625 45.015625 
Q 53.71875 37.640625 53.71875 26.125 
Q 53.71875 14.203125 45.703125 6.484375 
Q 37.703125 -1.21875 25.53125 -1.21875 
Q 10.546875 -1.21875 1.90625 12.84375 
L 10.5 20.125 
Q 14.0625 14.0625 17.671875 11.578125 
Q 21.296875 9.125 26.515625 9.125 
Q 33.34375 9.125 37.984375 13.921875 
Q 42.625 18.84375 42.625 25.875 
Q 42.625 33.109375 38.03125 37.703125 
Q 33.453125 42.4375 26.5625 42.4375 
Q 18.890625 42.4375 13.328125 35.75 
L 9.578125 35.75 
L 21.4375 75.390625 
L 52.59375 75.390625 
z
" id="Futura-Medium-53"/>
      </defs>
      <g transform="translate(360.936565 308.022155)rotate(-45)scale(0.1 -0.1)">
       <use xlink:href="#Futura-Medium-49"/>
       <use x="61.609375" xlink:href="#Futura-Medium-50"/>
       <use x="123.328125" xlink:href="#Futura-Medium-53"/>
       <use x="185.046875" xlink:href="#Futura-Medium-32"/>
       <use x="215.90625" xlink:href="#Futura-Medium-83"/>
       <use x="274.222656" xlink:href="#Futura-Medium-84"/>
      </g>
     </g>
    </g>
    <g id="text_11">
     <!-- MTA Stations -->
     <defs>
      <path d="M 18.265625 37.3125 
L 18.265625 0 
L 7.28125 0 
L 7.28125 37.3125 
L 2.59375 37.3125 
L 2.59375 47.5625 
L 7.28125 47.5625 
L 7.28125 64.984375 
L 18.265625 64.984375 
L 18.265625 47.5625 
L 26.8125 47.5625 
L 26.8125 37.3125 
z
" id="Futura-Medium-116"/>
      <path d="M 42 47.5625 
L 53.03125 47.5625 
L 53.03125 0 
L 42 0 
L 42 4.984375 
Q 35.203125 -1.375 27.390625 -1.375 
Q 17.53125 -1.375 11.078125 5.765625 
Q 4.6875 13.03125 4.6875 23.921875 
Q 4.6875 34.625 11.078125 41.75 
Q 17.484375 48.875 27.09375 48.875 
Q 35.40625 48.875 42 42.046875 
z
M 15.921875 23.921875 
Q 15.921875 17.09375 19.578125 12.796875 
Q 23.34375 8.453125 29.046875 8.453125 
Q 35.15625 8.453125 38.921875 12.640625 
Q 42.671875 17 42.671875 23.6875 
Q 42.671875 30.375 38.921875 34.71875 
Q 35.15625 38.96875 29.15625 38.96875 
Q 23.484375 38.96875 19.671875 34.671875 
Q 15.921875 30.328125 15.921875 23.921875 
z
" id="Futura-Medium-97"/>
      <path d="M 17.921875 47.5625 
L 17.921875 0 
L 6.9375 0 
L 6.9375 47.5625 
z
M 5.28125 67.328125 
Q 5.28125 70.21875 7.375 72.3125 
Q 9.46875 74.421875 12.40625 74.421875 
Q 15.375 74.421875 17.484375 72.3125 
Q 19.578125 70.265625 19.578125 67.28125 
Q 19.578125 64.3125 17.484375 62.203125 
Q 15.4375 60.109375 12.453125 60.109375 
Q 9.46875 60.109375 7.375 62.203125 
Q 5.28125 64.3125 5.28125 67.328125 
z
" id="Futura-Medium-105"/>
      <path d="M 4.6875 24.125 
Q 4.6875 34.421875 12.0625 41.640625 
Q 19.4375 48.875 30.03125 48.875 
Q 40.671875 48.875 48.09375 41.609375 
Q 55.421875 34.328125 55.421875 23.734375 
Q 55.421875 13.03125 48.046875 5.8125 
Q 40.625 -1.375 29.828125 -1.375 
Q 19.140625 -1.375 11.921875 5.953125 
Q 4.6875 13.1875 4.6875 24.125 
z
M 15.921875 23.921875 
Q 15.921875 16.796875 19.734375 12.640625 
Q 23.640625 8.453125 30.03125 8.453125 
Q 36.46875 8.453125 40.328125 12.59375 
Q 44.1875 16.75 44.1875 23.6875 
Q 44.1875 30.609375 40.328125 34.765625 
Q 36.421875 38.96875 30.03125 38.96875 
Q 23.734375 38.96875 19.828125 34.765625 
Q 15.921875 30.5625 15.921875 23.921875 
z
" id="Futura-Medium-111"/>
      <path d="M 6.9375 47.5625 
L 17.96875 47.5625 
L 17.96875 43.171875 
Q 23.734375 48.875 30.953125 48.875 
Q 39.265625 48.875 43.890625 43.65625 
Q 47.90625 39.203125 47.90625 29.15625 
L 47.90625 0 
L 36.859375 0 
L 36.859375 26.5625 
Q 36.859375 33.59375 34.90625 36.28125 
Q 33.015625 39.015625 27.984375 39.015625 
Q 22.515625 39.015625 20.21875 35.40625 
Q 17.96875 31.84375 17.96875 22.953125 
L 17.96875 0 
L 6.9375 0 
z
" id="Futura-Medium-110"/>
      <path d="M 34.578125 39.453125 
L 25.484375 34.625 
Q 23.34375 39.015625 20.171875 39.015625 
Q 18.65625 39.015625 17.578125 38.015625 
Q 16.5 37.015625 16.5 35.453125 
Q 16.5 32.71875 22.859375 30.03125 
Q 31.59375 26.265625 34.609375 23.09375 
Q 37.640625 19.921875 37.640625 14.546875 
Q 37.640625 7.671875 32.5625 3.03125 
Q 27.640625 -1.375 20.65625 -1.375 
Q 8.6875 -1.375 3.71875 10.296875 
L 13.09375 14.65625 
Q 15.046875 11.234375 16.0625 10.296875 
Q 18.0625 8.453125 20.84375 8.453125 
Q 26.421875 8.453125 26.421875 13.53125 
Q 26.421875 16.453125 22.125 19 
Q 20.453125 19.828125 18.796875 20.609375 
Q 17.140625 21.390625 15.4375 22.21875 
Q 10.640625 24.5625 8.6875 26.90625 
Q 6.203125 29.890625 6.203125 34.578125 
Q 6.203125 40.765625 10.453125 44.828125 
Q 14.796875 48.875 21 48.875 
Q 30.125 48.875 34.578125 39.453125 
z
" id="Futura-Medium-115"/>
     </defs>
     <g style="fill:#0039a6;" transform="translate(215.676562 358.853859)scale(0.1 -0.1)">
      <use xlink:href="#Futura-Medium-77"/>
      <use x="96.142578" xlink:href="#Futura-Medium-84"/>
      <use x="144.322266" xlink:href="#Futura-Medium-65"/>
      <use x="218.394531" xlink:href="#Futura-Medium-32"/>
      <use x="249.253906" xlink:href="#Futura-Medium-83"/>
      <use x="307.570312" xlink:href="#Futura-Medium-116"/>
      <use x="334.914062" xlink:href="#Futura-Medium-97"/>
      <use x="394.875" xlink:href="#Futura-Medium-116"/>
      <use x="422.21875" xlink:href="#Futura-Medium-105"/>
      <use x="447.121094" xlink:href="#Futura-Medium-111"/>
      <use x="507.228516" xlink:href="#Futura-Medium-110"/>
      <use x="562.0625" xlink:href="#Futura-Medium-115"/>
     </g>
    </g>
   </g>
   <g id="matplotlib.axis_2">
    <g id="ytick_1">
     <g id="line2d_11">
      <defs>
       <path d="M 0 0 
L -3.5 0 
" id="m290902fda9" style="stroke:#000000;stroke-width:0.8;"/>
      </defs>
      <g>
       <use style="stroke:#000000;stroke-width:0.8;" x="78.409375" xlink:href="#m290902fda9" y="272.38875"/>
      </g>
     </g>
     <g id="text_12">
      <!-- 0 -->
      <defs>
       <path d="M 4.25 38.1875 
Q 4.25 56.203125 12.640625 66.9375 
Q 20.171875 76.65625 30.859375 76.65625 
Q 41.546875 76.65625 49.078125 66.9375 
Q 57.46875 56.203125 57.46875 37.703125 
Q 57.46875 19.234375 49.078125 8.5 
Q 41.546875 -1.21875 30.90625 -1.21875 
Q 20.265625 -1.21875 12.640625 8.5 
Q 4.25 19.234375 4.25 38.1875 
z
M 15.4375 38.140625 
Q 15.4375 25.59375 19.78125 17.28125 
Q 24.125 9.125 30.859375 9.125 
Q 37.546875 9.125 41.9375 17.28125 
Q 46.34375 25.390625 46.34375 37.75 
Q 46.34375 50.09375 41.9375 58.25 
Q 37.546875 66.359375 30.859375 66.359375 
Q 24.21875 66.359375 19.828125 58.25 
Q 15.4375 50.203125 15.4375 38.140625 
z
" id="Futura-Medium-48"/>
      </defs>
      <g transform="translate(65.2375 276.512187)scale(0.1 -0.1)">
       <use xlink:href="#Futura-Medium-48"/>
      </g>
     </g>
    </g>
    <g id="ytick_2">
     <g id="line2d_12">
      <g>
       <use style="stroke:#000000;stroke-width:0.8;" x="78.409375" xlink:href="#m290902fda9" y="230.532945"/>
      </g>
     </g>
     <g id="text_13">
      <!-- 10000000 -->
      <g transform="translate(22.04375 234.656382)scale(0.1 -0.1)">
       <use xlink:href="#Futura-Medium-49"/>
       <use x="61.625" xlink:href="#Futura-Medium-48"/>
       <use x="123.34375" xlink:href="#Futura-Medium-48"/>
       <use x="185.0625" xlink:href="#Futura-Medium-48"/>
       <use x="246.78125" xlink:href="#Futura-Medium-48"/>
       <use x="308.5" xlink:href="#Futura-Medium-48"/>
       <use x="370.21875" xlink:href="#Futura-Medium-48"/>
       <use x="431.9375" xlink:href="#Futura-Medium-48"/>
      </g>
     </g>
    </g>
    <g id="ytick_3">
     <g id="line2d_13">
      <g>
       <use style="stroke:#000000;stroke-width:0.8;" x="78.409375" xlink:href="#m290902fda9" y="188.67714"/>
      </g>
     </g>
     <g id="text_14">
      <!-- 20000000 -->
      <g transform="translate(22.034375 192.800577)scale(0.1 -0.1)">
       <use xlink:href="#Futura-Medium-50"/>
       <use x="61.71875" xlink:href="#Futura-Medium-48"/>
       <use x="123.4375" xlink:href="#Futura-Medium-48"/>
       <use x="185.15625" xlink:href="#Futura-Medium-48"/>
       <use x="246.875" xlink:href="#Futura-Medium-48"/>
       <use x="308.59375" xlink:href="#Futura-Medium-48"/>
       <use x="370.3125" xlink:href="#Futura-Medium-48"/>
       <use x="432.03125" xlink:href="#Futura-Medium-48"/>
      </g>
     </g>
    </g>
    <g id="ytick_4">
     <g id="line2d_14">
      <g>
       <use style="stroke:#000000;stroke-width:0.8;" x="78.409375" xlink:href="#m290902fda9" y="146.821335"/>
      </g>
     </g>
     <g id="text_15">
      <!-- 30000000 -->
      <g transform="translate(22.034375 150.944772)scale(0.1 -0.1)">
       <use xlink:href="#Futura-Medium-51"/>
       <use x="61.71875" xlink:href="#Futura-Medium-48"/>
       <use x="123.4375" xlink:href="#Futura-Medium-48"/>
       <use x="185.15625" xlink:href="#Futura-Medium-48"/>
       <use x="246.875" xlink:href="#Futura-Medium-48"/>
       <use x="308.59375" xlink:href="#Futura-Medium-48"/>
       <use x="370.3125" xlink:href="#Futura-Medium-48"/>
       <use x="432.03125" xlink:href="#Futura-Medium-48"/>
      </g>
     </g>
    </g>
    <g id="ytick_5">
     <g id="line2d_15">
      <g>
       <use style="stroke:#000000;stroke-width:0.8;" x="78.409375" xlink:href="#m290902fda9" y="104.96553"/>
      </g>
     </g>
     <g id="text_16">
      <!-- 40000000 -->
      <g transform="translate(22.034375 109.088967)scale(0.1 -0.1)">
       <use xlink:href="#Futura-Medium-52"/>
       <use x="61.71875" xlink:href="#Futura-Medium-48"/>
       <use x="123.4375" xlink:href="#Futura-Medium-48"/>
       <use x="185.15625" xlink:href="#Futura-Medium-48"/>
       <use x="246.875" xlink:href="#Futura-Medium-48"/>
       <use x="308.59375" xlink:href="#Futura-Medium-48"/>
       <use x="370.3125" xlink:href="#Futura-Medium-48"/>
       <use x="432.03125" xlink:href="#Futura-Medium-48"/>
      </g>
     </g>
    </g>
    <g id="ytick_6">
     <g id="line2d_16">
      <g>
       <use style="stroke:#000000;stroke-width:0.8;" x="78.409375" xlink:href="#m290902fda9" y="63.109725"/>
      </g>
     </g>
     <g id="text_17">
      <!-- 50000000 -->
      <g transform="translate(22.034375 67.233162)scale(0.1 -0.1)">
       <use xlink:href="#Futura-Medium-53"/>
       <use x="61.71875" xlink:href="#Futura-Medium-48"/>
       <use x="123.4375" xlink:href="#Futura-Medium-48"/>
       <use x="185.15625" xlink:href="#Futura-Medium-48"/>
       <use x="246.875" xlink:href="#Futura-Medium-48"/>
       <use x="308.59375" xlink:href="#Futura-Medium-48"/>
       <use x="370.3125" xlink:href="#Futura-Medium-48"/>
       <use x="432.03125" xlink:href="#Futura-Medium-48"/>
      </g>
     </g>
    </g>
    <g id="text_18">
     <!-- Commuters -->
     <defs>
      <path d="M 6.9375 47.5625 
L 17.921875 47.5625 
L 17.921875 43.171875 
Q 21.09375 46.484375 23.34375 47.65625 
Q 25.734375 48.875 29.34375 48.875 
Q 37.40625 48.875 42.09375 41.84375 
Q 47.265625 48.875 56.109375 48.875 
Q 72.171875 48.875 72.171875 29.390625 
L 72.171875 0 
L 61.140625 0 
L 61.140625 26.421875 
Q 61.140625 33.25 59.46875 36.078125 
Q 57.765625 38.96875 53.859375 38.96875 
Q 49.3125 38.96875 47.234375 35.546875 
Q 45.171875 32.125 45.171875 24.5625 
L 45.171875 0 
L 34.125 0 
L 34.125 26.265625 
Q 34.125 38.96875 26.8125 38.96875 
Q 22.171875 38.96875 20.046875 35.5 
Q 17.921875 32.03125 17.921875 24.5625 
L 17.921875 0 
L 6.9375 0 
z
" id="Futura-Medium-109"/>
      <path d="M 17.921875 47.5625 
L 17.921875 20.265625 
Q 17.921875 8.453125 27.25 8.453125 
Q 36.578125 8.453125 36.578125 20.265625 
L 36.578125 47.5625 
L 47.5625 47.5625 
L 47.5625 20.015625 
Q 47.5625 14.3125 46.140625 10.15625 
Q 44.78125 6.453125 41.40625 3.46875 
Q 35.84375 -1.375 27.25 -1.375 
Q 18.703125 -1.375 13.140625 3.46875 
Q 9.71875 6.453125 8.296875 10.15625 
Q 6.9375 13.484375 6.9375 20.015625 
L 6.9375 47.5625 
z
" id="Futura-Medium-117"/>
      <path d="M 50.25 21.1875 
L 16.15625 21.1875 
Q 16.609375 15.328125 19.96875 11.859375 
Q 23.34375 8.453125 28.609375 8.453125 
Q 32.71875 8.453125 35.40625 10.40625 
Q 38.03125 12.359375 41.40625 17.625 
L 50.6875 12.453125 
Q 48.53125 8.796875 46.140625 6.171875 
Q 43.75 3.5625 41.015625 1.875 
Q 38.28125 0.203125 35.109375 -0.578125 
Q 31.9375 -1.375 28.21875 -1.375 
Q 17.578125 -1.375 11.140625 5.46875 
Q 4.6875 12.359375 4.6875 23.734375 
Q 4.6875 35.015625 10.9375 42 
Q 17.234375 48.875 27.640625 48.875 
Q 38.140625 48.875 44.234375 42.1875 
Q 50.296875 35.546875 50.296875 23.78125 
z
M 38.96875 30.171875 
Q 36.671875 38.96875 27.875 38.96875 
Q 25.875 38.96875 24.109375 38.359375 
Q 22.359375 37.75 20.921875 36.59375 
Q 19.484375 35.453125 18.453125 33.84375 
Q 17.4375 32.234375 16.890625 30.171875 
z
" id="Futura-Medium-101"/>
      <path d="M 6.9375 47.5625 
L 17.921875 47.5625 
L 17.921875 43.3125 
Q 20.953125 46.484375 23.296875 47.65625 
Q 25.6875 48.875 28.953125 48.875 
Q 33.296875 48.875 38.03125 46.046875 
L 33.015625 35.984375 
Q 29.890625 38.234375 26.90625 38.234375 
Q 17.921875 38.234375 17.921875 24.65625 
L 17.921875 0 
L 6.9375 0 
z
" id="Futura-Medium-114"/>
     </defs>
     <g style="fill:#0039a6;" transform="translate(15.446875 188.846094)rotate(-90)scale(0.1 -0.1)">
      <use xlink:href="#Futura-Medium-67"/>
      <use x="70.068359" xlink:href="#Futura-Medium-111"/>
      <use x="130.175781" xlink:href="#Futura-Medium-109"/>
      <use x="209.277344" xlink:href="#Futura-Medium-109"/>
      <use x="288.378906" xlink:href="#Futura-Medium-117"/>
      <use x="342.871094" xlink:href="#Futura-Medium-116"/>
      <use x="370.214844" xlink:href="#Futura-Medium-101"/>
      <use x="425.537109" xlink:href="#Futura-Medium-114"/>
      <use x="462.939453" xlink:href="#Futura-Medium-115"/>
     </g>
    </g>
   </g>
   <g id="patch_33">
    <path d="M 78.409375 272.38875 
L 78.409375 54.94875 
" style="fill:none;stroke:#000000;stroke-linecap:square;stroke-linejoin:miter;stroke-width:0.8;"/>
   </g>
   <g id="patch_34">
    <path d="M 413.209375 272.38875 
L 413.209375 54.94875 
" style="fill:none;stroke:#000000;stroke-linecap:square;stroke-linejoin:miter;stroke-width:0.8;"/>
   </g>
   <g id="patch_35">
    <path d="M 78.409375 272.38875 
L 413.209375 272.38875 
" style="fill:none;stroke:#000000;stroke-linecap:square;stroke-linejoin:miter;stroke-width:0.8;"/>
   </g>
   <g id="patch_36">
    <path d="M 78.409375 54.94875 
L 413.209375 54.94875 
" style="fill:none;stroke:#000000;stroke-linecap:square;stroke-linejoin:miter;stroke-width:0.8;"/>
   </g>
   <g id="text_19">
    <!-- Total Footfall Among Top 10 MTA Stations -->
    <defs>
     <path d="M 17.921875 82.46875 
L 17.921875 0 
L 6.9375 0 
L 6.9375 82.46875 
z
" id="Futura-Medium-108"/>
     <path d="M 18.3125 37.3125 
L 18.3125 0 
L 7.28125 0 
L 7.28125 37.3125 
L 3.375 37.3125 
L 3.375 47.5625 
L 7.28125 47.5625 
L 7.28125 65.921875 
Q 7.28125 74.90625 10.40625 78.609375 
Q 14.703125 83.796875 22.90625 83.796875 
Q 25.828125 83.796875 30.28125 82.078125 
L 30.28125 70.84375 
L 29.15625 71.4375 
Q 25.59375 73.25 23.296875 73.25 
Q 20.359375 73.25 19.34375 71.140625 
Q 18.3125 69.09375 18.3125 63.234375 
L 18.3125 47.5625 
L 30.28125 47.5625 
L 30.28125 37.3125 
z
" id="Futura-Medium-102"/>
     <path d="M 52.9375 1.125 
Q 52.9375 -2.25 52.703125 -4.8125 
Q 52.484375 -7.375 52.09375 -9.328125 
Q 50.921875 -14.703125 47.515625 -18.5625 
Q 41.0625 -25.984375 29.78125 -25.984375 
Q 20.265625 -25.984375 14.109375 -20.84375 
Q 7.765625 -15.578125 6.78125 -6.25 
L 17.828125 -6.25 
Q 18.453125 -9.765625 19.921875 -11.671875 
Q 23.34375 -16.109375 29.890625 -16.109375 
Q 41.9375 -16.109375 41.9375 -1.3125 
L 41.9375 5.328125 
Q 35.40625 -1.375 26.859375 -1.375 
Q 17.140625 -1.375 10.9375 5.671875 
Q 4.6875 12.796875 4.6875 23.484375 
Q 4.6875 33.890625 10.5 41.15625 
Q 16.75 48.875 27 48.875 
Q 35.984375 48.875 41.9375 42.1875 
L 41.9375 47.5625 
L 52.9375 47.5625 
z
M 42.390625 23.6875 
Q 42.390625 30.609375 38.671875 34.765625 
Q 34.90625 39.015625 29.046875 39.015625 
Q 22.796875 39.015625 19.1875 34.375 
Q 15.921875 30.21875 15.921875 23.640625 
Q 15.921875 17.140625 19.1875 12.984375 
Q 22.75 8.453125 29.046875 8.453125 
Q 35.359375 8.453125 39.015625 13.03125 
Q 42.390625 17.1875 42.390625 23.6875 
z
" id="Futura-Medium-103"/>
     <path d="M 17.921875 -25.875 
L 6.9375 -25.875 
L 6.9375 47.5625 
L 17.921875 47.5625 
L 17.921875 42.390625 
Q 24.421875 48.875 32.671875 48.875 
Q 42.484375 48.875 48.828125 41.65625 
Q 55.28125 34.46875 55.28125 23.53125 
Q 55.28125 12.84375 48.875 5.71875 
Q 42.53125 -1.375 32.859375 -1.375 
Q 24.515625 -1.375 17.921875 5.328125 
z
M 44.046875 23.484375 
Q 44.046875 30.328125 40.328125 34.625 
Q 36.578125 38.96875 30.859375 38.96875 
Q 24.8125 38.96875 21.046875 34.765625 
Q 17.28125 30.5625 17.28125 23.734375 
Q 17.28125 17.046875 21.046875 12.703125 
Q 24.75 8.453125 30.8125 8.453125 
Q 36.53125 8.453125 40.234375 12.75 
Q 44.046875 17.046875 44.046875 23.484375 
z
" id="Futura-Medium-112"/>
    </defs>
    <g style="fill:#0039a6;" transform="translate(52.315625 23.959375)scale(0.2 -0.2)">
     <use xlink:href="#Futura-Medium-84"/>
     <use x="48.179688" xlink:href="#Futura-Medium-111"/>
     <use x="108.287109" xlink:href="#Futura-Medium-116"/>
     <use x="135.630859" xlink:href="#Futura-Medium-97"/>
     <use x="195.591797" xlink:href="#Futura-Medium-108"/>
     <use x="220.494141" xlink:href="#Futura-Medium-32"/>
     <use x="251.353516" xlink:href="#Futura-Medium-70"/>
     <use x="302.183594" xlink:href="#Futura-Medium-111"/>
     <use x="362.291016" xlink:href="#Futura-Medium-111"/>
     <use x="422.398438" xlink:href="#Futura-Medium-116"/>
     <use x="449.742188" xlink:href="#Futura-Medium-102"/>
     <use x="479.445312" xlink:href="#Futura-Medium-97"/>
     <use x="539.40625" xlink:href="#Futura-Medium-108"/>
     <use x="564.308594" xlink:href="#Futura-Medium-108"/>
     <use x="589.210938" xlink:href="#Futura-Medium-32"/>
     <use x="620.070312" xlink:href="#Futura-Medium-65"/>
     <use x="694.142578" xlink:href="#Futura-Medium-109"/>
     <use x="773.244141" xlink:href="#Futura-Medium-111"/>
     <use x="833.351562" xlink:href="#Futura-Medium-110"/>
     <use x="888.185547" xlink:href="#Futura-Medium-103"/>
     <use x="948.048828" xlink:href="#Futura-Medium-32"/>
     <use x="978.908203" xlink:href="#Futura-Medium-84"/>
     <use x="1027.087891" xlink:href="#Futura-Medium-111"/>
     <use x="1087.195312" xlink:href="#Futura-Medium-112"/>
     <use x="1147.15625" xlink:href="#Futura-Medium-32"/>
     <use x="1178.015625" xlink:href="#Futura-Medium-49"/>
     <use x="1239.640625" xlink:href="#Futura-Medium-48"/>
     <use x="1301.359375" xlink:href="#Futura-Medium-32"/>
     <use x="1332.21875" xlink:href="#Futura-Medium-77"/>
     <use x="1428.361328" xlink:href="#Futura-Medium-84"/>
     <use x="1476.541016" xlink:href="#Futura-Medium-65"/>
     <use x="1550.613281" xlink:href="#Futura-Medium-32"/>
     <use x="1581.472656" xlink:href="#Futura-Medium-83"/>
     <use x="1639.789062" xlink:href="#Futura-Medium-116"/>
     <use x="1667.132812" xlink:href="#Futura-Medium-97"/>
     <use x="1727.09375" xlink:href="#Futura-Medium-116"/>
     <use x="1754.4375" xlink:href="#Futura-Medium-105"/>
     <use x="1779.339844" xlink:href="#Futura-Medium-111"/>
     <use x="1839.447266" xlink:href="#Futura-Medium-110"/>
     <use x="1894.28125" xlink:href="#Futura-Medium-115"/>
    </g>
    <!--  April to June 2019 -->
    <defs>
     <path d="M 31.984375 75.390625 
L 31.984375 26.609375 
Q 31.984375 17.875 30.765625 13.578125 
Q 29.546875 8.6875 26.609375 5.328125 
Q 20.90625 -1.375 11.46875 -1.375 
Q 4.34375 -1.375 -1.859375 2.34375 
L 3.71875 12.0625 
Q 7.859375 9.28125 11.46875 9.28125 
Q 16.546875 9.28125 18.5 13.140625 
Q 20.5625 17 20.5625 26.609375 
L 20.5625 75.390625 
z
" id="Futura-Medium-74"/>
     <path d="M 22.46875 -2.59375 
L 14.109375 3.609375 
L 32.125 28.171875 
Q 30.671875 27.984375 29.640625 27.875 
Q 28.609375 27.78125 27.984375 27.78125 
Q 18.84375 27.78125 12.15625 34.765625 
Q 5.515625 41.703125 5.515625 51.46875 
Q 5.515625 61.859375 12.890625 69.234375 
Q 20.3125 76.65625 30.671875 76.65625 
Q 40.96875 76.65625 48.578125 69.34375 
Q 56.203125 62.0625 56.203125 52.15625 
Q 56.203125 43.359375 48.78125 33.15625 
z
M 16.609375 52.296875 
Q 16.609375 46.1875 20.75 42.046875 
Q 24.953125 37.84375 30.859375 37.84375 
Q 36.765625 37.84375 40.921875 42 
Q 45.125 46.1875 45.125 52.09375 
Q 45.125 58.015625 40.921875 62.203125 
Q 36.765625 66.359375 30.8125 66.359375 
Q 24.953125 66.359375 20.796875 62.203125 
Q 16.609375 58.015625 16.609375 52.296875 
z
" id="Futura-Medium-57"/>
    </defs>
    <g style="fill:#0039a6;" transform="translate(157.360937 48.94875)scale(0.2 -0.2)">
     <use xlink:href="#Futura-Medium-32"/>
     <use x="30.859375" xlink:href="#Futura-Medium-65"/>
     <use x="104.931641" xlink:href="#Futura-Medium-112"/>
     <use x="164.892578" xlink:href="#Futura-Medium-114"/>
     <use x="202.310547" xlink:href="#Futura-Medium-105"/>
     <use x="227.212891" xlink:href="#Futura-Medium-108"/>
     <use x="252.115234" xlink:href="#Futura-Medium-32"/>
     <use x="282.974609" xlink:href="#Futura-Medium-116"/>
     <use x="310.318359" xlink:href="#Futura-Medium-111"/>
     <use x="370.425781" xlink:href="#Futura-Medium-32"/>
     <use x="401.285156" xlink:href="#Futura-Medium-74"/>
     <use x="442.300781" xlink:href="#Futura-Medium-117"/>
     <use x="496.792969" xlink:href="#Futura-Medium-110"/>
     <use x="551.626953" xlink:href="#Futura-Medium-101"/>
     <use x="606.949219" xlink:href="#Futura-Medium-32"/>
     <use x="637.808594" xlink:href="#Futura-Medium-50"/>
     <use x="699.527344" xlink:href="#Futura-Medium-48"/>
     <use x="761.136719" xlink:href="#Futura-Medium-49"/>
     <use x="822.730469" xlink:href="#Futura-Medium-57"/>
    </g>
   </g>
  </g>
 </g>
 <defs>
  <clipPath id="pc2e064ebc8">
   <rect height="217.44" width="334.8" x="78.409375" y="54.94875"/>
  </clipPath>
 </defs>
</svg>
